<svg width="299" height="83" viewBox="0 0 299 83" fill="none" xmlns="http://www.w3.org/2000/svg">
<g clip-path="url(#clip0_602_8961)">
<path d="M0.935791 47.9517C0.935791 49.4682 2.11533 50.6477 3.63187 50.6477C5.14841 50.6477 6.37609 49.4682 6.37609 47.9517V35.4342L11.1664 42.8002C11.7442 43.6668 12.4663 44.1964 13.4774 44.1964C14.4884 44.1964 15.2106 43.6428 15.7883 42.8002L20.6509 35.3138V47.8554C20.6509 49.3719 21.8785 50.6237 23.3951 50.6237C24.9116 50.6237 26.1634 49.396 26.1634 47.8554V27.8514C26.1634 26.3108 24.9357 25.0832 23.3951 25.0832H22.7933C21.686 25.0832 20.8916 25.5405 20.3138 26.4793L13.5737 37.4081L6.8816 26.5034C6.37609 25.685 5.55764 25.0591 4.3781 25.0591H3.7763C2.23569 25.0591 1.00801 26.2868 1.00801 27.8274V47.9035L0.935791 47.9517ZM30.4241 48.048C30.4241 49.4923 31.5315 50.6477 32.9758 50.6477C34.1312 50.6477 35.0701 49.9978 35.5274 48.9145L37.2847 44.7741H48.3579L50.0429 48.722C50.5484 49.8774 51.415 50.6237 52.7149 50.6237C54.1833 50.6237 55.3388 49.4441 55.3388 47.9517C55.3388 47.5906 55.2425 47.2295 55.0499 46.8443L46.2636 27.033C45.6618 25.6609 44.5785 24.8424 43.062 24.8424H42.7491C41.2325 24.8424 40.1252 25.6609 39.5234 27.033L30.7371 46.8443C30.5445 47.2295 30.4241 47.6387 30.4241 48.0239M39.3308 39.8634L42.8213 31.5586L46.3117 39.8634H39.3308ZM68.4581 50.7681C73.8984 50.7681 77.7018 47.9757 77.7018 42.9687V42.8965C77.7018 38.5154 74.8372 36.6618 69.7098 35.3379C65.3528 34.2306 64.2695 33.6769 64.2695 32.0159V31.9437C64.2695 30.716 65.3769 29.7531 67.4952 29.7531C69.2284 29.7531 70.9616 30.3549 72.7911 31.4382C73.2244 31.6789 73.6577 31.8233 74.1873 31.8233C75.6316 31.8233 76.787 30.716 76.787 29.2717C76.787 28.1885 76.1852 27.4422 75.5594 27.0811C73.2966 25.6368 70.6246 24.8424 67.5674 24.8424C62.416 24.8424 58.757 27.8514 58.757 32.4251V32.4974C58.757 37.5044 62.0308 38.9005 67.11 40.2004C71.3227 41.2837 72.1893 42.0059 72.1893 43.402V43.4742C72.1893 44.9426 70.8172 45.8574 68.5544 45.8574C66.099 45.8574 64.0288 44.9908 62.1271 43.5946C61.766 43.3539 61.2605 43.0891 60.5384 43.0891C59.094 43.0891 57.9386 44.1964 57.9386 45.6407C57.9386 46.5073 58.3719 47.3017 58.9737 47.735C61.766 49.7571 65.1121 50.744 68.434 50.744M87.8121 47.8313C87.8121 49.3719 89.0397 50.5996 90.5804 50.5996C92.121 50.5996 93.3487 49.3719 93.3487 47.8313V30.3068H98.6686C100.065 30.3068 101.22 29.1513 101.22 27.7552C101.22 26.359 100.065 25.2035 98.6686 25.2035H82.4921C81.096 25.2035 79.9405 26.359 79.9405 27.7552C79.9405 29.1513 81.096 30.3068 82.4921 30.3068H87.8121V47.8313ZM108.033 50.3829H122.163C123.535 50.3829 124.642 49.2997 124.642 47.9517C124.642 46.6036 123.535 45.4722 122.163 45.4722H110.753V40.1764H120.358C121.73 40.1764 122.837 39.0931 122.837 37.7451C122.837 36.397 121.73 35.2657 120.358 35.2657H110.753V30.1624H121.97C123.343 30.1624 124.45 29.0791 124.45 27.7311C124.45 26.383 123.343 25.2517 121.97 25.2517H108.009C106.468 25.2517 105.24 26.4793 105.24 28.02V47.6628C105.24 49.2034 106.468 50.4311 108.009 50.4311M129.336 47.8794C129.336 49.4201 130.564 50.6477 132.105 50.6477C133.645 50.6477 134.873 49.4201 134.873 47.8794V42.3669H139.302L144.694 49.2034C145.344 50.0219 146.163 50.6477 147.439 50.6477C148.763 50.6477 150.063 49.6367 150.063 48.0961C150.063 47.2295 149.701 46.6518 149.172 45.9778L145.32 41.3078C148.378 40.056 150.351 37.6007 150.351 33.6528V33.5806C150.351 31.1975 149.605 29.2236 148.209 27.8274C146.548 26.1664 144.069 25.2757 140.867 25.2757H132.129C130.588 25.2757 129.361 26.5034 129.361 28.044V47.9035L129.336 47.8794ZM134.873 37.4803V30.2346H140.386C143.082 30.2346 144.743 31.4623 144.743 33.8213V33.8935C144.743 36.0119 143.202 37.4562 140.506 37.4562H134.897L134.873 37.4803ZM167.13 50.8644C171.15 50.8644 173.822 49.6849 176.085 47.7109C176.59 47.2776 177.023 46.6036 177.023 45.737C177.023 44.3408 175.844 43.1854 174.424 43.1854C173.774 43.1854 173.196 43.4502 172.763 43.7872C171.174 45.0389 169.633 45.7611 167.298 45.7611C162.989 45.7611 160.004 42.1503 160.004 37.8414V37.7692C160.004 33.4602 163.062 29.9216 167.298 29.9216C169.272 29.9216 170.885 30.5716 172.45 31.7271C172.835 31.9678 173.34 32.2566 174.111 32.2566C175.627 32.2566 176.855 31.0771 176.855 29.5606C176.855 28.5977 176.349 27.8033 175.772 27.37C173.677 25.8294 171.126 24.8184 167.346 24.8184C159.619 24.8184 154.227 30.6679 154.227 37.8414V37.9136C154.227 45.1593 159.715 50.8644 167.13 50.8644ZM181.886 47.6628C181.886 49.2034 183.114 50.4311 184.654 50.4311H197.677C199.073 50.4311 200.181 49.3238 200.181 47.9276C200.181 46.5314 199.073 45.4241 197.677 45.4241H187.423V27.8274C187.423 26.2868 186.195 25.0591 184.654 25.0591C183.114 25.0591 181.886 26.2868 181.886 27.8274V47.6869V47.6628ZM202.419 48.048C202.419 49.4923 203.527 50.6477 204.971 50.6477C206.127 50.6477 207.065 49.9978 207.523 48.9145L209.28 44.7741H220.353L222.038 48.722C222.544 49.8774 223.41 50.6237 224.686 50.6237C226.155 50.6237 227.31 49.4441 227.31 47.9517C227.31 47.5906 227.214 47.2295 227.021 46.8443L218.235 27.033C217.633 25.6609 216.55 24.8424 215.033 24.8424H214.696C213.18 24.8424 212.072 25.6609 211.471 27.033L202.684 46.8443C202.516 47.2295 202.371 47.6387 202.371 48.0239M211.302 39.8634L214.792 31.5586L218.283 39.8634H211.302ZM240.429 50.7681C245.87 50.7681 249.673 47.9757 249.673 42.9687V42.8965C249.673 38.5154 246.808 36.6618 241.681 35.3379C237.324 34.2306 236.241 33.6769 236.241 32.0159V31.9437C236.241 30.716 237.348 29.7531 239.49 29.7531C241.224 29.7531 242.933 30.3549 244.786 31.4382C245.22 31.6789 245.653 31.8233 246.183 31.8233C247.627 31.8233 248.782 30.716 248.782 29.2717C248.782 28.1885 248.181 27.4422 247.555 27.0811C245.292 25.6368 242.62 24.8424 239.563 24.8424C234.411 24.8424 230.752 27.8514 230.752 32.4251V32.4974C230.752 37.5044 234.026 38.9005 239.081 40.2004C243.294 41.2837 244.16 42.0059 244.16 43.402V43.4742C244.16 44.9426 242.788 45.8574 240.526 45.8574C238.07 45.8574 236 44.9908 234.074 43.5946C233.713 43.3539 233.208 43.0891 232.486 43.0891C231.041 43.0891 229.886 44.1964 229.886 45.6407C229.886 46.5073 230.319 47.3017 230.921 47.735C233.713 49.7571 237.059 50.744 240.381 50.744M263.033 50.744C268.473 50.744 272.277 47.9517 272.277 42.9447V42.8724C272.277 38.4913 269.412 36.6378 264.285 35.3138C259.928 34.2065 258.844 33.6528 258.844 31.9918V31.9196C258.844 30.692 259.952 29.7291 262.094 29.7291C263.827 29.7291 265.537 30.3309 267.39 31.4141C267.823 31.6548 268.257 31.7993 268.786 31.7993C270.231 31.7993 271.386 30.692 271.386 29.2476C271.386 28.1644 270.784 27.4181 270.158 27.0571C267.896 25.6127 265.224 24.8184 262.166 24.8184C257.015 24.8184 253.356 27.8274 253.356 32.4011V32.4733C253.356 37.4803 256.63 38.8765 261.685 40.1764C265.898 41.2596 266.764 41.9818 266.764 43.378V43.4502C266.764 44.9186 265.392 45.8333 263.129 45.8333C260.674 45.8333 258.604 44.9667 256.678 43.5705C256.317 43.3298 255.811 43.065 255.089 43.065C253.645 43.065 252.489 44.1723 252.489 45.6167C252.489 46.4833 252.923 47.2776 253.525 47.7109C256.341 49.733 259.663 50.72 262.985 50.72" fill="white"/>
<path d="M165.685 82.0627C169.296 82.0627 171.848 80.1851 171.848 76.8631V76.815C171.848 73.9022 169.922 72.6746 166.528 71.7839C163.615 71.0377 162.893 70.6766 162.893 69.5693V69.5211C162.893 68.7027 163.639 68.0527 165.06 68.0527C166.215 68.0527 167.37 68.4619 168.574 69.1841C168.863 69.3526 169.152 69.4489 169.513 69.4489C170.476 69.4489 171.246 68.7027 171.246 67.7398C171.246 67.0176 170.837 66.5121 170.428 66.2714C168.911 65.3085 167.154 64.7789 165.108 64.7789C161.689 64.7789 159.234 66.7769 159.234 69.834V69.8822C159.234 73.2282 161.425 74.143 164.795 75.0096C167.611 75.7317 168.189 76.2132 168.189 77.152V77.2001C168.189 78.1871 167.274 78.7889 165.758 78.7889C164.121 78.7889 162.725 78.2111 161.473 77.2723C161.232 77.1038 160.895 76.9353 160.414 76.9353C159.451 76.9353 158.68 77.6816 158.68 78.6444C158.68 79.2222 158.969 79.7518 159.379 80.0406C161.256 81.3887 163.471 82.0627 165.685 82.0627ZM174.52 80.1128C174.52 81.1479 175.338 81.9664 176.373 81.9664C177.409 81.9664 178.227 81.1479 178.227 80.1128V66.7287C178.227 65.6936 177.409 64.8752 176.373 64.8752C175.338 64.8752 174.52 65.6936 174.52 66.7287V80.1128ZM185.593 80.1128C185.593 81.1479 186.412 81.9664 187.447 81.9664C188.482 81.9664 189.3 81.1479 189.3 80.1128V68.4379H192.839C193.778 68.4379 194.548 67.6676 194.548 66.7287C194.548 65.7899 193.778 65.0196 192.839 65.0196H182.054C181.116 65.0196 180.345 65.7899 180.345 66.7287C180.345 67.6676 181.116 68.4379 182.054 68.4379H185.593V80.1128ZM198.351 81.822H207.763C208.678 81.822 209.424 81.0998 209.424 80.1851C209.424 79.2703 208.678 78.5241 207.763 78.5241H200.157V74.9855H206.56C207.475 74.9855 208.221 74.2633 208.221 73.3486C208.221 72.4338 207.475 71.6876 206.56 71.6876H200.157V68.2694H207.643C208.558 68.2694 209.304 67.5472 209.304 66.6325C209.304 65.7177 208.558 64.9715 207.643 64.9715H198.351C197.316 64.9715 196.498 65.7899 196.498 66.825V79.9203C196.498 80.9554 197.316 81.7738 198.351 81.7738M218.427 82.0386H218.668C219.679 82.0386 220.377 81.485 220.762 80.5702L226.251 67.4268C226.347 67.2102 226.443 66.8973 226.443 66.6084C226.443 65.5974 225.625 64.827 224.614 64.827C223.723 64.827 223.073 65.4048 222.833 66.0066L218.596 76.9835L214.407 66.1269C214.119 65.3807 213.493 64.827 212.53 64.827C211.495 64.827 210.676 65.6214 210.676 66.6565C210.676 66.9695 210.772 67.2583 210.893 67.5472L216.333 80.5702C216.718 81.485 217.416 82.0386 218.427 82.0386ZM228.706 80.0647C228.706 81.0998 229.525 81.9183 230.56 81.9183C231.595 81.9183 232.413 81.0998 232.413 80.0647V66.6806C232.413 65.6455 231.595 64.827 230.56 64.827C229.525 64.827 228.706 65.6455 228.706 66.6806V80.0647ZM241.368 80.0166C241.368 81.1239 242.211 81.7738 243.366 81.7738H252.489C253.38 81.7738 254.102 81.0757 254.102 80.1851C254.102 79.2944 253.38 78.5722 252.489 78.5722H246.64L249.384 76.4539C252.369 74.143 253.789 72.7708 253.789 69.9544V69.9063C253.789 66.7769 251.478 64.7308 248.012 64.7308C245.46 64.7308 243.896 65.6455 242.548 67.1861C242.283 67.4991 242.114 67.9323 242.114 68.3416C242.114 69.2804 242.861 70.0266 243.799 70.0266C244.377 70.0266 244.81 69.7618 245.051 69.497C245.99 68.486 246.736 68.0286 247.795 68.0286C249.119 68.0286 250.058 68.7989 250.058 70.2192C250.058 71.6395 249.24 72.5542 247.145 74.2392L242.379 78.1389C241.753 78.6444 241.416 79.2703 241.416 79.9925M263.322 82.0386C267.799 82.0386 270.808 78.2352 270.808 73.3726V73.3245C270.808 68.4619 267.823 64.6826 263.37 64.6826C258.917 64.6826 255.884 68.486 255.884 73.3726V73.4208C255.884 78.2834 258.82 82.0627 263.322 82.0627M263.37 78.7407C261.131 78.7407 259.663 76.4539 259.663 73.3967V73.3486C259.663 70.2673 261.107 68.0527 263.322 68.0527C265.537 68.0527 267.005 70.3636 267.005 73.3967V73.4449C267.005 76.478 265.585 78.7407 263.37 78.7407ZM272.18 80.0406C272.18 81.1479 273.023 81.7979 274.178 81.7979H283.278C284.168 81.7979 284.891 81.0998 284.891 80.2091C284.891 79.3185 284.168 78.5963 283.278 78.5963H277.428L280.172 76.478C283.133 74.167 284.578 72.7949 284.578 69.9785V69.9303C284.578 66.801 282.267 64.7548 278.8 64.7548C276.249 64.7548 274.684 65.6696 273.336 67.2102C273.071 67.5231 272.903 67.9564 272.903 68.3656C272.903 69.3045 273.649 70.0507 274.588 70.0507C275.165 70.0507 275.599 69.7859 275.839 69.5211C276.778 68.5101 277.524 68.0527 278.584 68.0527C279.908 68.0527 280.846 68.823 280.846 70.2433C280.846 71.6635 280.028 72.5783 277.958 74.2633L273.191 78.163C272.566 78.6685 272.229 79.2944 272.229 80.0166M292.882 82.0627C296.614 82.0627 298.925 79.7518 298.925 76.5742V76.5261C298.925 73.4208 296.71 72.2172 294.423 71.832L297.697 68.6786C298.371 68.0286 298.804 67.5231 298.804 66.6325C298.804 65.6214 298.01 64.9956 296.927 64.9956H288.742C287.875 64.9956 287.153 65.7177 287.153 66.5843C287.153 67.4509 287.875 68.1731 288.742 68.1731H293.894L290.644 71.471C290.066 72.0487 289.849 72.482 289.849 72.9875C289.849 73.8541 290.572 74.5763 291.438 74.5763H292.016C294.086 74.5763 295.29 75.3466 295.29 76.7187V76.7668C295.29 78.0186 294.303 78.813 292.907 78.813C291.583 78.813 290.572 78.3797 289.633 77.5612C289.344 77.3205 288.983 77.1038 288.453 77.1038C287.49 77.1038 286.672 77.9223 286.672 78.8852C286.672 79.4148 286.961 79.9203 287.298 80.2091C288.67 81.3887 290.475 82.1349 292.858 82.1349" fill="#ACB698"/>
<path d="M90.7969 14.3236V0.602539H293.966V50.7688M90.7969 60.8069V74.528H147.366" stroke="#ACB698" stroke-width="1.20361" stroke-linecap="round" stroke-linejoin="round"/>
</g>
<defs>
<clipPath id="clip0_602_8961">
<rect width="297.868" height="82.11" fill="white" transform="translate(0.935791 0.000976562)"/>
</clipPath>
</defs>
</svg>
