<svg width="99" height="91" viewBox="0 0 99 91" fill="none" xmlns="http://www.w3.org/2000/svg">
<g clip-path="url(#clip0_623_7094)">
<path d="M9.28103 65.2185C9.80725 65.2178 10.2968 64.9558 10.5814 64.5224C10.8652 64.0884 10.9059 63.5434 10.6884 63.0743C7.90261 57.6071 6.36618 51.6114 6.18655 45.5029C6.18863 42.3277 6.55464 39.163 7.27768 36.0683L11.4459 39.1334C11.8188 39.4061 12.2974 39.5009 12.7497 39.3913L17.5471 38.2152L18.641 41.4325C18.7494 41.752 18.9642 42.0284 19.2501 42.2151L23.6331 45.0802L26.1758 48.8189L24.7954 54.2346C24.5993 55.0035 25.0397 55.7897 25.8064 56.0409L29.3897 57.2115V60.6683C29.3897 61.0706 29.5527 61.4564 29.8429 61.7409L34.4834 66.2904C34.5553 66.3608 34.6348 66.4245 34.7195 66.4801L38.8623 69.1883L40.2643 74.6859C40.4031 75.2287 40.8353 75.6526 41.3892 75.7886L46.9967 77.163L49.7588 81.2254C49.9503 81.5056 50.2307 81.7156 50.5566 81.8224L55.1971 83.339C55.9278 83.5775 56.726 83.2537 57.0706 82.5787L58.6177 79.5457C58.8012 79.1856 58.8309 78.7691 58.7012 78.3872L57.3565 74.4335L58.5051 72.1824L61.4213 69.3238C61.5905 69.1574 61.719 68.9543 61.7948 68.7316L63.3416 64.1818C63.5621 63.5326 63.3127 62.8197 62.7327 62.4397L58.9994 59.9997L60.2818 54.97C60.3605 54.6599 60.3371 54.3349 60.2169 54.0389L57.1232 46.4562C56.8477 45.7756 56.1149 45.3872 55.383 45.5326L48.3267 46.9158L42.6931 42.7731C42.5599 42.6756 42.4121 42.5997 42.2546 42.5478L33.1693 39.5788L29.1427 36.9472L26.6409 29.5891L28.5344 28.6616C28.9384 28.4631 29.2347 28.1015 29.3438 27.6724L30.5149 23.0773L35.202 24.2256C35.6253 24.3305 36.0734 24.2539 36.4361 24.0163L41.0765 20.9832C41.1608 20.9277 41.2403 20.864 41.3122 20.7936L44.4058 17.7605C44.8762 17.2988 44.9936 16.594 44.6958 16.0096L43.198 13.0727L41.6858 8.62522C41.5689 8.28196 41.3308 7.99153 41.0145 7.80533L36.3332 5.05107C40.589 3.71596 45.0308 3.03691 49.4995 3.03899C59.2174 2.87919 68.7002 5.97331 76.3833 11.8099C76.7045 12.0645 77.1154 12.1823 77.5257 12.1369C77.9357 12.0922 78.3107 11.8892 78.5669 11.5723C78.8231 11.2548 78.9399 10.8506 78.8902 10.4491C78.8412 10.0476 78.6304 9.68199 78.3044 9.43352C70.077 3.16881 59.9153 -0.156724 49.501 0.00567818C37.1977 0.0192189 25.4015 4.81744 16.7019 13.3468C8.00209 21.8761 3.10796 33.4399 3.09418 45.5031C3.26888 52.0453 4.90003 58.4704 7.87356 64.3293C8.12495 64.871 8.67401 65.2192 9.28103 65.2185ZM32.6132 6.39996L38.9319 10.1162L40.2971 14.1344C40.3205 14.2021 40.3488 14.2685 40.3814 14.3328L41.4296 16.3882L39.2322 18.5419L35.2889 21.1194L29.7652 19.766C28.9365 19.5642 28.0981 20.0578 27.8895 20.8689L26.5153 26.2588L24.0577 27.464C23.3692 27.8019 23.0391 28.5838 23.2822 29.3001L26.376 38.3996C26.4844 38.7191 26.6991 38.994 26.985 39.1815L31.6257 42.2147C31.7404 42.2891 31.8647 42.3488 31.9944 42.3914L41.0374 45.3467L47.0245 49.7487C47.3768 50.0074 47.825 50.1068 48.2565 50.0222L54.7284 48.7528L57.1592 54.7094L55.7331 60.2997C55.5745 60.9219 55.8319 61.5744 56.3754 61.9301L60.0329 64.3205L58.9755 67.4315L56.14 70.2115C56.0226 70.3265 55.9246 70.4599 55.85 70.6055L54.3032 73.6386C54.1194 73.9988 54.0897 74.4153 54.2196 74.797L55.5641 78.7509L54.9039 80.0453L52.0387 79.1089L49.2399 74.9919C49.0258 74.6784 48.7012 74.4536 48.3284 74.3623L43.0413 73.0663L41.7196 67.8831C41.6264 67.5175 41.3965 67.198 41.0761 66.9887L36.5633 64.0389L32.4841 60.0401V56.118C32.4841 55.4655 32.0581 54.8859 31.4269 54.6795L28.1455 53.6069L29.3448 48.9036C29.4506 48.4886 29.3726 48.0499 29.1309 47.6943L26.037 43.1448C25.9237 42.9774 25.7781 42.8347 25.6082 42.7235L21.4089 39.9794L20.0298 35.9227C19.7743 35.1713 18.9712 34.7393 18.1866 34.9315L12.7139 36.2736L8.13337 32.9051C10.0153 27.0136 13.1787 21.5931 17.4056 17.017C21.6318 12.441 26.8208 8.819 32.6132 6.39996Z" fill="#7A8C5D"/>
<path d="M90.6784 27.417C89.8883 27.7353 89.51 28.6209 89.8338 29.396C91.8867 34.5239 92.8984 39.9951 92.8122 45.5028C92.8122 45.595 92.8059 45.6858 92.8052 45.7777L86.7247 46.97L82.4737 45.5806C81.9176 45.3986 81.3046 45.5402 80.8902 45.947L77.904 48.8739L73.3913 51.8239C72.6807 52.289 72.4887 53.2301 72.9625 53.9275L76.0561 58.4772C76.3434 58.899 76.8261 59.1521 77.3434 59.1521H81.0276L81.6484 60.3696L77.7963 64.1461C77.679 64.261 77.5809 64.3944 77.5063 64.54L75.9595 67.5732C75.6253 68.2284 75.8173 69.0246 76.4154 69.4648L81.977 73.554C77.9214 78.0827 72.9253 81.7117 67.3246 84.1972C61.7241 86.6824 55.6471 87.9675 49.4995 87.9667C41.6316 87.9811 33.8995 85.9616 27.0813 82.1111C26.3458 81.6854 25.3976 81.9258 24.9639 82.6473C24.5295 83.3684 24.7746 84.298 25.5108 84.7233C32.8047 88.8478 41.0789 91.0121 49.4988 91.0002C61.802 90.9865 73.5983 86.1884 82.2979 77.6591C90.9976 69.1297 95.8918 57.5658 95.9056 45.5026C95.9925 39.6002 94.9021 33.7377 92.6966 28.2449C92.3713 27.4704 91.469 27.1002 90.6784 27.417ZM79.304 67.7976L80.161 66.1164L84.6247 61.7415C85.0951 61.2798 85.2117 60.575 84.9149 59.9907L83.3679 56.9575C83.1054 56.4436 82.5696 56.1194 81.984 56.1194H78.1716L76.3946 53.5067L79.7481 51.3151C79.8324 51.2595 79.9125 51.1958 79.9842 51.1254L82.402 48.7551L86.135 49.9757C86.3907 50.0597 86.6641 50.076 86.9285 50.0231L92.6618 48.8992C92.0072 57.0035 88.9797 64.75 83.9435 71.2093L79.304 67.7976Z" fill="#7A8C5D"/>
<path d="M93.9754 17.1807C93.244 14.6973 91.4671 12.6377 89.0911 11.5179C86.7148 10.3981 83.9643 10.325 81.5299 11.3162C79.095 12.308 77.2062 14.2701 76.3382 16.7108C74.1969 16.5537 72.0848 17.2809 70.5141 18.7161C68.9429 20.1521 68.0543 22.1656 68.0625 24.2713C68.0625 24.6733 68.2255 25.0594 68.5155 25.3436C68.8055 25.6281 69.1993 25.7879 69.6093 25.7879H97.4532C97.8632 25.7879 98.257 25.6281 98.547 25.3436C98.837 25.0594 99 24.6733 99 24.2713C99.0041 22.7269 98.5241 21.2192 97.6258 19.9511C96.7273 18.683 95.4531 17.7161 93.9754 17.1807ZM71.421 22.7547C71.7422 21.8685 72.3347 21.1007 73.1178 20.5577C73.9016 20.0147 74.8372 19.7229 75.7966 19.7216C76.2225 19.7297 76.6451 19.7961 77.0527 19.9186C77.4752 20.0357 77.9297 19.9707 78.3005 19.7405C78.6719 19.5103 78.9262 19.1359 78.9986 18.7108C79.3183 16.8198 80.5346 15.1895 82.2753 14.3174C84.0162 13.4447 86.0754 13.4339 87.826 14.2876C89.5766 15.1414 90.81 16.7581 91.1512 18.6458C91.2604 19.2416 91.7208 19.7162 92.3218 19.8543C93.8617 20.2009 95.1136 21.295 95.642 22.7547L71.421 22.7547Z" fill="#7A8C5D"/>
<path d="M30.9373 78.8679C30.9414 77.3236 30.4613 75.8158 29.5631 74.5478C28.6646 73.2796 27.3904 72.3128 25.9126 71.7774C25.1815 69.294 23.4052 67.2343 21.0283 66.1145C18.6522 64.9948 15.9016 64.9217 13.4667 65.9129C11.0324 66.9048 9.14379 68.8668 8.27575 71.3075C6.13365 71.1497 4.02194 71.8763 2.45085 73.3122C0.879127 74.748 -0.00964424 76.7615 7.89499e-05 78.8679C7.89499e-05 79.27 0.163054 79.656 0.453092 79.9403C0.74313 80.2248 1.13676 80.3845 1.54695 80.3845H29.3907C29.8009 80.3845 30.1945 80.2248 30.4845 79.9403C30.7745 79.656 30.9373 79.27 30.9373 78.8679ZM3.35871 77.3514C3.67983 76.4651 4.27236 75.6973 5.05545 75.1544C5.83924 74.6113 6.77498 74.3196 7.7341 74.3182C8.16018 74.3263 8.58282 74.3927 8.99026 74.5153C9.41287 74.6324 9.86726 74.5675 10.2381 74.3371C10.6096 74.107 10.8638 73.7327 10.9363 73.3074C11.256 71.4165 12.4721 69.7861 14.213 68.914C15.9539 68.0413 18.0132 68.0306 19.7637 68.8843C21.5143 69.738 22.7477 71.3547 23.0889 73.2425C23.198 73.8383 23.6586 74.3129 24.2593 74.4508C25.7994 74.7976 27.0514 75.8918 27.5795 77.3514H3.35871Z" fill="#7A8C5D"/>
<path d="M56.7444 22.8328L52.8218 24.1144L48.8109 21.4929C48.1971 21.0921 47.3802 21.1713 46.8586 21.6825L43.765 24.7155C43.475 25 43.312 25.3858 43.312 25.7881V31.8542C43.312 32.3614 43.5701 32.8346 44.0004 33.1162L48.6411 36.1494C49.0043 36.3865 49.4517 36.4622 49.875 36.3587L56.0625 34.8421C56.3339 34.7758 56.5826 34.6376 56.7808 34.4432L61.4213 29.8937C61.9428 29.3824 62.0235 28.5816 61.6147 27.9795L58.5211 23.4299C58.1342 22.8605 57.4067 22.6154 56.7444 22.8328ZM54.8965 32.0017L49.7883 33.253L46.4059 31.0424V26.4155L48.1495 24.7062L51.7347 27.0499C52.1327 27.3085 52.6298 27.3737 53.0828 27.2266L56.6026 26.0764L58.3373 28.6276L54.8965 32.0017Z" fill="#7A8C5D"/>
<path d="M67.4875 39.3299L75.2218 42.3628C75.4041 42.4347 75.5997 42.4713 75.7965 42.4713C75.8607 42.4713 75.925 42.4672 75.9885 42.4598L88.3635 40.9432C88.8614 40.8814 89.2984 40.5876 89.5353 40.1537C89.7722 39.7198 89.7799 39.1999 89.5553 38.7597L84.9146 29.6604C84.6524 29.1465 84.1171 28.8223 83.5308 28.8223H77.3433C77.1031 28.8223 76.8662 28.8771 76.6513 28.982L70.464 32.0152C70.2235 32.1335 70.0178 32.3109 69.8686 32.5303L66.775 37.08C66.5166 37.4606 66.4468 37.9352 66.5849 38.371C66.723 38.8078 67.0546 39.1599 67.4875 39.3299ZM72.2151 34.5486L77.7079 31.8552H82.5741L85.8102 38.1991L76.0001 39.401L70.4066 37.2082L72.2151 34.5486Z" fill="#7A8C5D"/>
</g>
<defs>
<clipPath id="clip0_623_7094">
<rect width="99" height="91" fill="white"/>
</clipPath>
</defs>
</svg>
