<svg width="256" height="256" viewBox="0 0 256 256" fill="none" xmlns="http://www.w3.org/2000/svg">
<rect width="256" height="256" rx="50" fill="#751B42"/>
<path d="M224.936 147.601C224.936 149.04 225.509 150.419 226.53 151.436C227.55 152.453 228.934 153.025 230.378 153.025C231.821 153.025 233.205 152.453 234.226 151.436C235.247 150.419 235.82 149.04 235.82 147.601V108.333C235.82 106.894 235.247 105.515 234.226 104.498C233.205 103.481 231.821 102.909 230.378 102.909C228.934 102.909 227.55 103.481 226.53 104.498C225.509 105.515 224.936 106.894 224.936 108.333V147.601ZM194.638 153.325H195.342C196.69 153.35 198.011 152.947 199.115 152.176C200.22 151.404 201.05 150.304 201.487 149.032L217.67 110.508C218.02 109.758 218.215 108.945 218.244 108.118C218.243 107.422 218.101 106.734 217.829 106.094C217.557 105.453 217.159 104.873 216.659 104.388C216.158 103.902 215.566 103.522 214.916 103.268C214.266 103.014 213.572 102.892 212.874 102.909C211.753 102.897 210.654 103.219 209.718 103.833C208.781 104.448 208.05 105.327 207.619 106.358L195.126 138.6L182.777 106.701C182.383 105.566 181.636 104.587 180.644 103.904C179.652 103.222 178.468 102.874 177.263 102.909C176.551 102.896 175.843 103.025 175.182 103.288C174.52 103.551 173.918 103.944 173.411 104.442C172.904 104.941 172.502 105.536 172.229 106.192C171.956 106.848 171.817 107.551 171.821 108.261C171.857 109.164 172.077 110.05 172.467 110.866L188.492 149.075C188.929 150.347 189.76 151.447 190.864 152.218C191.968 152.99 193.29 153.392 194.638 153.368M135.521 152.596H163.278C163.914 152.603 164.545 152.485 165.135 152.249C165.725 152.012 166.262 151.662 166.716 151.218C167.17 150.773 167.531 150.244 167.779 149.66C168.027 149.077 168.156 148.45 168.16 147.816C168.156 146.528 167.64 145.294 166.725 144.385C165.81 143.475 164.57 142.965 163.278 142.965H140.892V132.604H159.745C160.381 132.611 161.012 132.493 161.603 132.257C162.193 132.02 162.73 131.67 163.184 131.226C163.638 130.782 163.999 130.252 164.246 129.668C164.494 129.085 164.624 128.458 164.627 127.824C164.624 126.536 164.108 125.302 163.192 124.393C162.277 123.483 161.038 122.973 159.745 122.973H140.892V112.955H162.933C163.568 112.961 164.197 112.842 164.786 112.604C165.374 112.367 165.91 112.016 166.362 111.572C166.814 111.128 167.174 110.6 167.421 110.017C167.668 109.434 167.797 108.808 167.801 108.175C167.797 106.889 167.283 105.655 166.372 104.744C165.46 103.833 164.224 103.317 162.933 103.31H135.521C134.805 103.306 134.094 103.444 133.431 103.716C132.768 103.988 132.166 104.389 131.66 104.895C131.153 105.401 130.753 106.002 130.482 106.663C130.21 107.325 130.074 108.033 130.079 108.748V147.186C130.076 147.899 130.214 148.605 130.486 149.264C130.758 149.923 131.159 150.521 131.666 151.025C132.172 151.528 132.774 151.926 133.435 152.196C134.097 152.465 134.806 152.601 135.521 152.596ZM97.9437 147.601C97.9437 149.04 98.517 150.419 99.5376 151.436C100.558 152.453 101.942 153.025 103.386 153.025C104.829 153.025 106.213 152.453 107.234 151.436C108.255 150.419 108.828 149.04 108.828 147.601V113.327H119.281C120.614 113.327 121.893 112.8 122.835 111.86C123.778 110.921 124.307 109.647 124.307 108.319C124.307 106.99 123.778 105.716 122.835 104.777C121.893 103.838 120.614 103.31 119.281 103.31H87.4902C86.1573 103.31 84.879 103.838 83.9365 104.777C82.994 105.716 82.4645 106.99 82.4645 108.319C82.4645 109.647 82.994 110.921 83.9365 111.86C84.879 112.8 86.1573 113.327 87.4902 113.327H97.9437V147.601ZM65.3198 147.601C65.2819 148.336 65.3943 149.071 65.6504 149.761C65.9064 150.451 66.3006 151.082 66.809 151.615C67.3174 152.148 67.9294 152.573 68.6077 152.863C69.286 153.154 70.0165 153.303 70.7547 153.303C71.4929 153.303 72.2234 153.154 72.9017 152.863C73.58 152.573 74.192 152.148 74.7004 151.615C75.2088 151.082 75.603 150.451 75.859 149.761C76.115 149.071 76.2275 148.336 76.1896 147.601V108.333C76.2275 107.598 76.115 106.863 75.859 106.173C75.603 105.483 75.2088 104.852 74.7004 104.319C74.192 103.786 73.58 103.361 72.9017 103.071C72.2234 102.78 71.4929 102.631 70.7547 102.631C70.0165 102.631 69.286 102.78 68.6077 103.071C67.9294 103.361 67.3174 103.786 66.809 104.319C66.3006 104.852 65.9064 105.483 65.6504 106.173C65.3943 106.863 65.2819 107.598 65.3198 108.333V147.601ZM39.3298 153.325C49.9986 153.325 57.4797 147.83 57.4797 138.042V137.899C57.4797 129.312 51.8366 125.72 41.7995 123.116C33.2559 120.94 31.1307 119.882 31.1307 116.647V116.504C31.1307 114.114 33.3277 112.211 37.4918 112.211C41.187 112.366 44.7724 113.508 47.8734 115.517C48.7004 116.029 49.6565 116.297 50.6304 116.29C51.7331 116.306 52.8105 115.96 53.6965 115.305C54.5825 114.651 55.228 113.724 55.5333 112.668C55.8386 111.612 55.7869 110.485 55.3862 109.461C54.9854 108.437 54.2578 107.573 53.3156 107.002C48.613 104.095 43.168 102.604 37.6354 102.709C27.584 102.709 20.4045 108.619 20.4045 117.563V117.706C20.3327 127.395 26.6938 130.142 36.7451 132.675C45.0016 134.793 46.696 136.196 46.696 138.943V139.086C46.696 141.948 44.0252 143.737 39.5164 143.737C34.9245 143.687 30.4776 142.128 26.8661 139.301C25.9822 138.658 24.9161 138.312 23.8219 138.314C23.1573 138.302 22.4971 138.423 21.8799 138.669C21.2627 138.915 20.701 139.281 20.2276 139.747C19.7542 140.212 19.3787 140.766 19.1231 141.378C18.8674 141.989 18.7368 142.645 18.7388 143.308C18.7355 144.099 18.9181 144.88 19.2722 145.589C19.6263 146.297 20.1419 146.913 20.7778 147.387C26.19 151.242 32.677 153.314 39.3298 153.311" fill="white"/>
</svg>
