<svg width="69" height="69" viewBox="0 0 69 69" fill="none" xmlns="http://www.w3.org/2000/svg">
<circle cx="34.36" cy="34.36" r="34.36" fill="#7A8C5D"/>
<path d="M47.7197 25.0403C47.7197 23.8329 47.0029 22.7598 45.2434 22.7598C42.8322 22.7598 39.8997 23.9671 37.9447 25.9793C35.5335 28.461 34.0999 32.0829 34.0999 36.9793V37.2476C34.0999 41.8756 36.2504 44.7598 39.8997 44.7598C43.1581 44.7598 45.3086 42.4122 45.3086 39.2598V39.1256C45.3086 36.2415 43.0277 34.2293 40.7469 33.6256C40.6165 30.4061 42.4412 28.0585 45.7647 27.2537C46.8726 26.9854 47.7197 26.2476 47.7197 25.0403ZM33.3396 25.0403C33.3396 23.8329 32.6228 22.7598 30.8632 22.7598C28.4521 22.7598 25.5196 23.9671 23.5646 25.9793C21.1534 28.461 19.7197 32.0829 19.7197 36.9793V37.2476C19.7197 41.8756 21.8702 44.7598 25.5196 44.7598C28.7779 44.7598 30.9284 42.4122 30.9284 39.2598V39.1256C30.9284 36.2415 28.6476 34.2293 26.3667 33.6256C26.2364 30.4061 28.0611 28.0585 31.3846 27.2537C32.4924 26.9854 33.3396 26.2476 33.3396 25.0403Z" fill="white"/>
</svg>
