<svg width="50" height="50" viewBox="0 0 50 50" fill="none" xmlns="http://www.w3.org/2000/svg">
<path d="M25 50C29.9445 50 34.778 48.5338 38.8893 45.7867C43.0005 43.0397 46.2048 39.1352 48.097 34.5671C49.9892 29.9989 50.4843 24.9723 49.5196 20.1227C48.555 15.2732 46.174 10.8187 42.6777 7.32234C39.1814 3.82603 34.7268 1.44501 29.8773 0.480379C25.0277 -0.484251 20.0011 0.0108322 15.4329 1.90302C10.8648 3.79521 6.9603 6.99952 4.21326 11.1108C1.46623 15.222 0 20.0555 0 25C0 31.6304 2.63392 37.9893 7.32233 42.6777C12.0107 47.3661 18.3696 50 25 50Z" fill="#7B6A58"/>
<path d="M37.0095 16.788C37.0126 14.5577 36.3954 12.3704 35.2269 10.4707C34.0583 8.57105 32.3845 7.03375 30.3925 6.03068C28.4005 5.02761 26.1688 4.59828 23.9468 4.79069C21.7248 4.9831 19.6001 5.78965 17.8101 7.12022C16.0202 8.45078 14.6355 10.2529 13.8109 12.3252C12.9863 14.3975 12.7543 16.6583 13.1408 18.8548C13.5272 21.0514 14.5169 23.0972 15.9993 24.7637C17.4816 26.4301 19.3982 27.6514 21.5348 28.2911V44.557H26.9778V28.6234C29.7795 28.1556 32.3248 26.7099 34.1614 24.543C35.998 22.3762 37.0071 19.6285 37.0095 16.788Z" fill="white"/>
<path d="M17.8955 19.3831C18.3976 19.3862 18.8892 19.24 19.3079 18.963C19.7267 18.686 20.0536 18.2908 20.2472 17.8276C20.4408 17.3643 20.4922 16.854 20.395 16.3614C20.2979 15.8689 20.0564 15.4163 19.7014 15.0613C19.3464 14.7063 18.8939 14.4649 18.4013 14.3677C17.9088 14.2705 17.3984 14.322 16.9352 14.5156C16.4719 14.7091 16.0767 15.0361 15.7997 15.4548C15.5228 15.8736 15.3766 16.3652 15.3797 16.8672C15.3838 17.5332 15.6502 18.1707 16.1211 18.6416C16.5921 19.1125 17.2296 19.3789 17.8955 19.3831Z" fill="#7B6A58"/>
<path d="M24.462 13.9241C24.966 13.9239 25.4585 13.7732 25.8763 13.4914C26.2942 13.2095 26.6184 12.8094 26.8075 12.3421C26.9966 11.8749 27.0419 11.3619 26.9376 10.8688C26.8333 10.3756 26.5842 9.92486 26.2222 9.57416C25.8602 9.22345 25.4018 8.9888 24.9056 8.90023C24.4094 8.81167 23.8981 8.87322 23.4371 9.07703C22.9761 9.28083 22.5864 9.61759 22.318 10.0442C22.0495 10.4708 21.9146 10.9678 21.9303 11.4716C21.9303 11.8033 21.9959 12.1318 22.1233 12.438C22.2507 12.7443 22.4375 13.0223 22.6728 13.2562C22.9081 13.49 23.1873 13.675 23.4943 13.8005C23.8014 13.926 24.1302 13.9895 24.462 13.9874" fill="#7B6A58"/>
<path d="M31.2025 19.9524C31.7046 19.9555 32.1962 19.8093 32.6149 19.5323C33.0337 19.2554 33.3606 18.8601 33.5542 18.3969C33.7478 17.9337 33.7992 17.4233 33.7021 16.9308C33.6049 16.4382 33.3634 15.9857 33.0084 15.6307C32.6534 15.2757 32.2009 15.0342 31.7083 14.937C31.2158 14.8399 30.7054 14.8913 30.2422 15.0849C29.779 15.2785 29.3837 15.6054 29.1068 16.0241C28.8298 16.4429 28.6836 16.9345 28.6867 17.4366C28.6908 18.1025 28.9572 18.74 29.4281 19.2109C29.8991 19.6819 30.5366 19.9483 31.2025 19.9524Z" fill="#7B6A58"/>
<path d="M24.4621 24.6678C24.9628 24.6678 25.4522 24.5193 25.8686 24.2411C26.2849 23.9629 26.6094 23.5676 26.801 23.105C26.9926 22.6424 27.0428 22.1333 26.9451 21.6422C26.8474 21.1511 26.6063 20.7001 26.2522 20.346C25.8981 19.9919 25.4471 19.7508 24.956 19.6531C24.4649 19.5555 23.9558 19.6056 23.4932 19.7972C23.0306 19.9888 22.6353 20.3133 22.3571 20.7296C22.0789 21.146 21.9304 21.6354 21.9304 22.1361C21.9304 22.8076 22.1971 23.4515 22.6719 23.9263C23.1467 24.4011 23.7906 24.6678 24.4621 24.6678Z" fill="#7B6A58"/>
</svg>
