<svg width="50" height="50" viewBox="0 0 50 50" fill="none" xmlns="http://www.w3.org/2000/svg">
<path d="M25 50C29.9445 50 34.778 48.5338 38.8892 45.7867C43.0005 43.0397 46.2048 39.1352 48.097 34.5671C49.9892 29.9989 50.4842 24.9723 49.5196 20.1227C48.555 15.2732 46.174 10.8186 42.6777 7.32234C39.1813 3.82603 34.7268 1.44501 29.8772 0.480379C25.0277 -0.484251 20.0011 0.0108322 15.4329 1.90302C10.8648 3.79521 6.96029 6.99952 4.21326 11.1108C1.46622 15.222 0 20.0555 0 25C0 31.6304 2.63392 37.9893 7.32233 42.6777C12.0107 47.3661 18.3696 50 25 50Z" fill="#ACB698"/>
<path d="M33.2436 27.2942L25.3164 9.88916L16.4873 27.6107H16.5981C16.1706 28.6885 15.9505 29.8373 15.9493 30.9967C15.9493 33.3971 16.9029 35.6992 18.6002 37.3965C20.2975 39.0938 22.5996 40.0474 25 40.0474C27.4003 40.0474 29.7024 39.0938 31.3997 37.3965C33.0971 35.6992 34.0506 33.3971 34.0506 30.9967C34.0417 29.7199 33.7668 28.459 33.2436 27.2942Z" fill="white"/>
</svg>
