<svg width="218" height="64" viewBox="0 0 218 64" fill="none" xmlns="http://www.w3.org/2000/svg">
<path d="M195.003 40.9925H198.35V24.5241H195.337L189.272 31.8622L183.202 24.5241H180.193V40.9925H183.536V29.875L188.959 36.4991H189.558L195.003 29.875V40.9925ZM166.265 24.5241H162.918V34.0372C162.918 38.2288 165.459 41.2538 170.276 41.2538C175.093 41.2538 177.707 37.9123 177.707 34.0372V24.5241H174.36V33.798C174.36 36.3409 173.024 38.111 170.276 38.111C167.528 38.111 166.261 36.4403 166.261 33.8237L166.265 24.5241ZM157.11 40.9925H160.457V24.5241H157.11V40.9925ZM149.64 34.5487C151.092 34.9609 151.959 35.3988 151.959 36.2931C151.959 37.3971 150.87 38.1331 148.899 38.1331C147.118 38.0952 145.382 37.559 143.883 36.5838L143.095 39.8075C144.871 40.7253 146.833 41.214 148.827 41.2354C152.747 41.2354 155.444 39.1267 155.444 36.0281C155.444 33.6765 153.992 32.3222 151.088 31.4758L148.079 30.6036C146.907 30.2651 146.311 29.9007 146.311 29.0028C146.311 28.1049 147.172 27.4056 149.215 27.4056C150.968 27.4215 152.688 27.8969 154.206 28.7857L155.161 25.6134C153.341 24.7372 151.349 24.2905 149.335 24.307C144.867 24.307 142.834 26.5592 142.834 29.2935C142.834 31.5237 144.101 33.0472 146.562 33.7096L149.64 34.5487ZM128.713 32.7822C128.713 29.7535 130.84 27.5013 133.795 27.5013C136.75 27.5013 138.859 29.7535 138.859 32.7822C138.859 35.811 136.779 38.0632 133.795 38.0632C130.811 38.0632 128.713 35.7594 128.713 32.7822ZM125.417 32.7822C125.39 33.9012 125.588 35.0141 125.998 36.0533C126.408 37.0926 127.022 38.0365 127.803 38.828C128.583 39.6195 129.515 40.2419 130.54 40.6577C131.565 41.0734 132.662 41.2737 133.766 41.2465C138.569 41.2465 142.151 37.6142 142.151 32.7822C142.151 27.9503 138.569 24.2812 133.766 24.2812C128.964 24.2812 125.417 27.9135 125.417 32.7822ZM118.706 27.4792C120.354 27.4792 121.668 28.5428 121.668 30.5043C121.684 30.902 121.618 31.2987 121.474 31.6692C121.331 32.0397 121.113 32.3759 120.834 32.6563C120.556 32.9367 120.222 33.1552 119.856 33.2979C119.489 33.4406 119.098 33.5044 118.706 33.4851H114.811V27.4792H118.706ZM111.467 40.9925H114.811V36.4403H119.232C122.408 36.4403 125.131 34.2322 125.131 30.53C125.131 26.412 122.408 24.5241 119.232 24.5241H111.467V40.9925Z" fill="#181716"/>
<path d="M84.3009 41.0293V38.0485H74.638V34.0556H82.5549V31.071H74.638V27.5087H84.3009V24.5241H71.4436V41.0293H84.3009ZM65.4034 41.0293H68.7502V24.5241H65.7374L59.6608 31.8843L53.5843 24.5241H50.5715V41.0293H53.9183V29.8823L59.3632 36.5286H59.9621L65.407 29.8823L65.4034 41.0293ZM35.4527 32.7933C35.4527 29.7646 37.5799 27.5087 40.5347 27.5087C43.4894 27.5087 45.6166 29.7646 45.6166 32.7933C45.6166 35.822 43.5366 38.0816 40.5347 38.0816C37.5327 38.0816 35.4527 35.7778 35.4527 32.7933ZM32.1495 32.7933C32.1242 33.9118 32.3228 35.024 32.7334 36.0625C33.144 37.101 33.7581 38.0444 34.5384 38.8355C35.3188 39.6267 36.2493 40.2492 37.2737 40.6655C38.2981 41.0818 39.395 41.2832 40.4984 41.2575C45.308 41.2575 48.8944 37.6216 48.8944 32.7933C48.8944 27.965 45.308 24.2812 40.4984 24.2812C35.6887 24.2812 32.1495 27.9209 32.1495 32.7933Z" fill="#181716"/>
<path d="M30.447 26.7653C29.358 25.1792 27.4704 24.2812 24.9004 24.2812C20.0944 24.2812 16.5298 27.4351 16.5298 32.7933C16.5298 38.1515 20.0944 41.2575 24.9004 41.2575C27.3729 41.2273 29.7483 40.2779 31.5759 38.5894L29.9969 36.0428C28.6302 37.3301 26.8453 38.0647 24.9803 38.1073C21.9892 38.1073 20.0036 36.1643 20.0036 32.7933C20.0036 29.4223 21.9892 27.4351 24.8605 27.4351C26.2108 27.4351 27.151 27.8951 27.7391 28.69L30.447 26.7653Z" fill="#181716"/>
<path d="M92.6281 32.8805L84.7366 22.9627C84.7366 22.9627 83.7855 21.7556 85.6005 21.6415C87.4155 21.5274 91.6008 21.6415 91.6008 21.6415C92.3271 21.6686 93.0156 21.9768 93.5247 22.5027C94.6137 23.6067 101.757 32.8879 101.757 32.8879L92.6281 32.8805Z" fill="#B52873"/>
<path d="M92.6281 32.8805L84.7366 22.9627C84.7366 22.9627 83.7855 21.7556 85.6005 21.6415C87.4155 21.5274 91.6008 21.6415 91.6008 21.6415C92.3271 21.6686 93.0156 21.9768 93.5247 22.5027C94.6137 23.6067 101.757 32.8879 101.757 32.8879L92.6281 32.8805Z" fill="url(#paint0_linear_603_9205)"/>
<path d="M101.739 32.8882L87.1325 50.0963C87.1325 50.0963 86.3593 50.9574 84.4681 50.9574H78.9252C78.8064 50.9534 78.6902 50.9209 78.5861 50.8627C78.4821 50.8045 78.393 50.7222 78.3262 50.6226C78.152 50.3723 78.1411 50.0043 78.584 49.4081C79.4334 48.2599 92.6282 32.8809 92.6282 32.8809L101.739 32.8882Z" fill="#B52873"/>
<path d="M101.739 32.8882L87.1325 50.0963C87.1325 50.0963 86.3593 50.9574 84.4681 50.9574H78.9252C78.8064 50.9534 78.6902 50.9209 78.5861 50.8627C78.4821 50.8045 78.393 50.7222 78.3262 50.6226C78.152 50.3723 78.1411 50.0043 78.584 49.4081C79.4334 48.2599 92.6282 32.8809 92.6282 32.8809L101.739 32.8882Z" fill="url(#paint1_linear_603_9205)"/>
<path d="M102.81 32.2294L99.3398 27.8869C99.3398 27.8869 101.075 25.7083 101.398 25.2851C101.647 24.9965 101.952 24.7638 102.295 24.6022C102.637 24.4406 103.009 24.3535 103.387 24.3467H107.525C107.679 24.3518 107.828 24.3999 107.956 24.4856C108.084 24.5714 108.186 24.6914 108.251 24.8325C108.31 24.9629 108.33 25.108 108.309 25.2499C108.288 25.3918 108.226 25.5243 108.132 25.631C107.293 26.6431 102.821 32.2294 102.821 32.2294" fill="#181716"/>
<path d="M102.81 34.0107L99.3398 38.2649L100.632 40.0829C100.632 40.0829 101.554 41.2421 102.926 41.2421H106.854C107.002 41.2448 107.148 41.2048 107.274 41.1266C107.401 41.0485 107.503 40.9355 107.568 40.8008C107.633 40.6661 107.66 40.5153 107.644 40.3661C107.628 40.2168 107.571 40.0752 107.478 39.9578C106.847 39.1665 102.81 34.0107 102.81 34.0107Z" fill="#181716"/>
<defs>
<linearGradient id="paint0_linear_603_9205" x1="97.5902" y1="29.8923" x2="82.6011" y2="22.5124" gradientUnits="userSpaceOnUse">
<stop stop-color="#B52873"/>
<stop offset="0.99" stop-color="#B56780"/>
</linearGradient>
<linearGradient id="paint1_linear_603_9205" x1="78.2137" y1="41.9192" x2="101.739" y2="41.9192" gradientUnits="userSpaceOnUse">
<stop stop-color="#B52873"/>
<stop offset="0.99" stop-color="#B56780"/>
</linearGradient>
</defs>
</svg>
