<svg width="103" height="102" viewBox="0 0 103 102" fill="none" xmlns="http://www.w3.org/2000/svg">
<mask id="mask0_603_9215" style="mask-type:luminance" maskUnits="userSpaceOnUse" x="6" y="9" width="96" height="89">
<path d="M101.465 9.78125H6.41602V97.8131H101.465V9.78125Z" fill="white"/>
</mask>
<g mask="url(#mask0_603_9215)">
<path d="M21.8235 57.7222V57.4823C22.1321 57.5022 22.4396 57.4278 22.7048 57.269C22.8917 57.1357 22.8917 56.8692 22.7048 56.4693L21.1026 52.8041H13.3588L11.9168 56.1761C11.751 56.4669 11.6897 56.8055 11.7432 57.1357C11.8233 57.3623 12.1438 57.4823 12.6912 57.4823V57.7222H9.0863V57.4823C9.27002 57.4611 9.44735 57.4021 9.60703 57.309C9.75067 57.216 9.8809 57.1039 9.99419 56.9758C10.1117 56.8432 10.2106 56.6952 10.288 56.536L10.5016 56.0562L17.0972 41.2354H18.5124L25.3617 56.6293C25.456 56.8481 25.6072 57.0376 25.7998 57.1783C25.9923 57.3189 26.2191 57.4055 26.4565 57.429V57.6689L21.8235 57.7222ZM17.2707 43.7677L13.8795 51.6179H20.6753L17.2707 43.7677Z" fill="black"/>
<path d="M59.5013 57.7218H47.7521V57.4818C48.1045 57.522 48.4604 57.4472 48.7667 57.2686C48.9418 56.9762 49.0124 56.6332 48.967 56.2956V42.8343C49.0093 42.4926 48.939 42.1464 48.7667 41.848C48.4585 41.6749 48.103 41.6049 47.7521 41.6481V41.4082H59.2343V43.8872H58.8737C58.7936 43.2741 58.5934 42.9009 58.273 42.7677C57.844 42.6198 57.3914 42.552 56.9379 42.5677H51.7308C51.437 42.5677 51.2768 42.5677 51.2368 42.6477C51.1999 42.801 51.1999 42.9609 51.2368 43.1142V48.632H56.4571H57.1782C57.3563 48.6132 57.5289 48.5588 57.6855 48.4721C57.8206 48.3878 57.9238 48.2613 57.9792 48.1122C58.0577 47.9014 58.1114 47.6823 58.1394 47.4591H58.4732V51.0977H58.1394C58.1143 50.8654 58.0604 50.6371 57.9792 50.418C57.92 50.2676 57.8179 50.1378 57.6855 50.0448C57.5339 49.955 57.366 49.8962 57.1915 49.8715H56.4571H51.2368V56.1624C51.233 56.2236 51.2444 56.2849 51.27 56.3407C51.2956 56.3965 51.3347 56.4451 51.3836 56.4822C51.4809 56.5557 51.5962 56.6017 51.7174 56.6155H56.7509C57.1066 56.6384 57.4633 56.6384 57.819 56.6155C58.0996 56.5819 58.3713 56.496 58.6201 56.3623C58.8666 56.2337 59.0882 56.0622 59.2744 55.8558C59.4864 55.5846 59.6656 55.2893 59.8084 54.9762H60.2223L59.5013 57.7218Z" fill="black"/>
<path d="M77.8193 57.7228V57.4829C78.0415 57.4991 78.2646 57.4991 78.4869 57.4829C78.6327 57.4678 78.7714 57.4124 78.8874 57.3229C78.9878 57.2324 79.0539 57.11 79.0743 56.9764C79.0989 56.7639 79.0989 56.5492 79.0743 56.3367V43.3018L72.4787 57.7361H71.6109L65.0153 43.6084V55.6836C65.0153 55.9901 65.0153 56.2567 65.0153 56.4833C65.0185 56.6773 65.064 56.8684 65.1488 57.043C65.1856 57.1231 65.2392 57.1943 65.306 57.2518C65.3728 57.3093 65.4513 57.3517 65.536 57.3763C65.7921 57.4699 66.0647 57.5107 66.3371 57.4962V57.7361H62.1981V57.4962C62.4835 57.5079 62.7686 57.4672 63.0393 57.3763C63.2119 57.324 63.3592 57.2101 63.4532 57.0564C63.5334 56.8807 63.5744 56.6897 63.5734 56.4966C63.5734 56.2834 63.5734 56.0035 63.5734 55.6836V42.8487C63.6068 42.6233 63.6068 42.3943 63.5734 42.1689C63.5508 42.0298 63.4741 41.9052 63.3598 41.8224C63.2336 41.737 63.085 41.6906 62.9325 41.6891H62.2516V41.4492H66.257L72.5055 54.7773L78.5803 41.4492H82.5858V41.6891C82.368 41.6724 82.1493 41.6724 81.9316 41.6891C81.7945 41.7069 81.6651 41.7623 81.5577 41.8491C81.4677 41.9492 81.4116 42.0751 81.3975 42.2089C81.3805 42.4174 81.3805 42.6269 81.3975 42.8353V56.2967C81.3803 56.5096 81.3803 56.7235 81.3975 56.9364C81.4151 57.0653 81.4709 57.1859 81.5577 57.283C81.6651 57.3697 81.7945 57.4251 81.9316 57.4429C82.1493 57.4596 82.368 57.4596 82.5858 57.4429V57.6828L77.8193 57.7228Z" fill="black"/>
<path d="M96.8318 57.7222V57.4823C97.1404 57.5022 97.4479 57.4278 97.7131 57.269C97.9 57.1357 97.9 56.8692 97.7131 56.4693L96.1109 52.8041H88.3671L86.9251 56.1761C86.7593 56.4669 86.698 56.8055 86.7515 57.1357C86.8316 57.3623 87.1521 57.4823 87.6995 57.4823V57.7222H84.0946V57.4823C84.2783 57.4611 84.4557 57.4021 84.6153 57.309C84.759 57.216 84.8892 57.1039 85.0025 56.9758C85.1204 56.8463 85.2153 56.6975 85.2829 56.536C85.363 56.376 85.4431 56.2161 85.5099 56.0562L92.0921 41.2354H93.5073L100.357 56.6293C100.458 56.8459 100.612 57.0331 100.806 57.1731C101 57.3131 101.227 57.4012 101.465 57.429V57.6689L96.8318 57.7222ZM92.279 43.7677L88.8744 51.6179H95.6703L92.279 43.7677Z" fill="black"/>
<path d="M30.8625 32.9451C30.7663 31.739 31.1516 30.5438 31.9344 29.62C32.7173 28.6963 33.8341 28.1189 35.0415 28.0137C36.2545 28.1289 37.3739 28.7138 38.1601 29.6431C38.9462 30.5723 39.3365 31.772 39.2473 32.985C39.3041 33.5869 39.2407 34.194 39.061 34.7712C38.8812 35.3485 38.5885 35.8844 38.1999 36.348C37.8112 36.8116 37.3343 37.1936 36.7967 37.472C36.2592 37.7504 35.6717 37.9195 35.0683 37.9697C33.8564 37.8578 32.7369 37.2757 31.9505 36.3486C31.1641 35.4214 30.7734 34.2233 30.8625 33.0117" fill="#DA6A0A"/>
<path d="M39.3006 23.3094C39.2679 22.8523 39.326 22.3933 39.4716 21.9588C39.6171 21.5242 39.8472 21.1226 40.1487 20.7771C40.4501 20.4315 40.817 20.1489 41.2282 19.9453C41.6395 19.7417 42.087 19.6213 42.545 19.5908C43.4418 19.6979 44.264 20.142 44.8444 20.8328C45.4248 21.5236 45.7198 22.4092 45.6692 23.3094C45.7431 24.2248 45.4498 25.132 44.854 25.8317C44.2582 26.5314 43.4085 26.9665 42.4916 27.0412C41.5777 26.9564 40.7329 26.519 40.137 25.8221C39.5411 25.1252 39.241 24.2237 39.3006 23.3094Z" fill="#DA6A0A"/>
<path d="M25.8156 25.0551C25.7638 24.4297 25.9623 23.8093 26.3677 23.3297C26.7731 22.8501 27.3523 22.5504 27.9786 22.4961C28.6057 22.5571 29.184 22.8601 29.5906 23.3406C29.9971 23.8211 30.1995 24.4411 30.1548 25.0684C30.203 25.693 30.0033 26.3115 29.5986 26.7903C29.1939 27.2691 28.6168 27.5698 27.9919 27.6274C27.3648 27.5664 26.7864 27.2634 26.3799 26.7829C25.9734 26.3024 25.7708 25.6824 25.8156 25.0551Z" fill="#DA6A0A"/>
</g>
<mask id="mask1_603_9215" style="mask-type:luminance" maskUnits="userSpaceOnUse" x="18" y="24" width="36" height="62">
<path d="M18.7926 24.2419C17.2706 25.0949 23.7594 39.4493 33.2923 56.2293C42.8252 73.0093 51.784 86.0308 53.3194 85.1779C54.8548 84.3249 48.3527 69.9705 38.8198 53.1239C29.5939 36.8103 20.8888 24.1486 18.9662 24.1486C18.9135 24.1366 18.8587 24.1366 18.8059 24.1486" fill="white"/>
</mask>
<g mask="url(#mask1_603_9215)">
<path d="M45.8315 8.1825L-9.19958 38.9727L26.2205 102.058L81.2516 71.2674L45.8315 8.1825Z" fill="url(#paint0_linear_603_9215)"/>
</g>
<mask id="mask2_603_9215" style="mask-type:luminance" maskUnits="userSpaceOnUse" x="7" y="9" width="56" height="88">
<path d="M32.3576 51.5511C17.3239 75.5416 6.41579 95.8536 7.99126 96.8665C9.56672 97.8795 23.0116 79.1535 38.032 55.123C53.0523 31.0925 63.9604 10.8339 62.3983 9.80762H62.2514C60.1419 9.80762 47.0041 28.1604 32.3576 51.5778" fill="white"/>
</mask>
<g mask="url(#mask2_603_9215)">
<path d="M21.8288 -15.6426L-32.6234 74.2529L48.5523 123.251L103.004 33.3559L21.8288 -15.6426Z" fill="url(#paint1_linear_603_9215)"/>
</g>
<mask id="mask3_603_9215" style="mask-type:luminance" maskUnits="userSpaceOnUse" x="31" y="46" width="9" height="14">
<path d="M32.3576 51.5514L31.4497 52.9908C32.0505 54.0837 32.6647 55.1766 33.2922 56.2828L35.1881 59.6015L38.0319 55.0833L39.0066 53.5239L38.8064 53.1774C37.6047 51.0449 36.4031 48.979 35.2282 46.9932C34.2802 48.4859 33.3189 50.0053 32.3576 51.5514Z" fill="white"/>
</mask>
<g mask="url(#mask3_603_9215)">
<path d="M35.3047 39.7193L27.6538 52.3506L38.826 59.0941L46.4769 46.4628L35.3047 39.7193Z" fill="url(#paint2_linear_603_9215)"/>
</g>
<defs>
<linearGradient id="paint0_linear_603_9215" x1="43.9588" y1="75.8745" x2="31.641" y2="53.8589" gradientUnits="userSpaceOnUse">
<stop stop-color="#004B23"/>
<stop offset="0.01" stop-color="#004B23"/>
<stop offset="0.14" stop-color="#065023"/>
<stop offset="0.32" stop-color="#196024"/>
<stop offset="0.54" stop-color="#367824"/>
<stop offset="0.78" stop-color="#5F9B25"/>
<stop offset="1" stop-color="#8DC126"/>
</linearGradient>
<linearGradient id="paint1_linear_603_9215" x1="16.3505" y1="78.758" x2="35.1898" y2="47.5471" gradientUnits="userSpaceOnUse">
<stop stop-color="#4F1502"/>
<stop offset="0.02" stop-color="#521603"/>
<stop offset="0.34" stop-color="#822510"/>
<stop offset="0.62" stop-color="#A4311A"/>
<stop offset="0.85" stop-color="#B93820"/>
<stop offset="1" stop-color="#C13A22"/>
</linearGradient>
<linearGradient id="paint2_linear_603_9215" x1="36.3661" y1="53.0374" x2="38.3605" y2="49.7332" gradientUnits="userSpaceOnUse">
<stop stop-color="#502206"/>
<stop offset="0.63" stop-color="#6E2E12"/>
<stop offset="1" stop-color="#793216"/>
</linearGradient>
</defs>
</svg>
