<svg width="50" height="50" viewBox="0 0 50 50" fill="none" xmlns="http://www.w3.org/2000/svg">
<path d="M25 50C29.9445 50 34.778 48.5338 38.8892 45.7867C43.0005 43.0397 46.2048 39.1352 48.097 34.5671C49.9892 29.9989 50.4842 24.9723 49.5196 20.1227C48.555 15.2732 46.174 10.8187 42.6777 7.32234C39.1813 3.82603 34.7268 1.44501 29.8773 0.480379C25.0277 -0.484251 20.0011 0.0108322 15.4329 1.90302C10.8648 3.79521 6.96029 6.99952 4.21326 11.1108C1.46623 15.222 0 20.0555 0 25C0 31.6304 2.63392 37.9893 7.32233 42.6777C12.0107 47.3661 18.3696 50 25 50Z" fill="#952456"/>
<path d="M21.7405 15.9334C22.0674 15.6077 22.3266 15.2205 22.5031 14.7941C22.6796 14.3677 22.77 13.9107 22.769 13.4492V8.33845C22.6473 8.32662 22.5344 8.26976 22.4525 8.17903C22.3705 8.08829 22.3254 7.97021 22.326 7.84795V5.55364C22.3217 5.49209 22.3299 5.4303 22.35 5.37197C22.3701 5.31365 22.4018 5.25998 22.4432 5.21419C22.4846 5.1684 22.5347 5.13142 22.5907 5.10547C22.6467 5.07951 22.7073 5.06512 22.769 5.06314C22.7731 4.81262 22.8744 4.5735 23.0516 4.39634C23.2287 4.21917 23.4679 4.11784 23.7184 4.11377H26.519C26.7695 4.11784 27.0086 4.21917 27.1858 4.39634C27.363 4.5735 27.4643 4.81262 27.4684 5.06314C27.5901 5.07497 27.703 5.13182 27.7849 5.22256C27.8669 5.3133 27.912 5.43137 27.9114 5.55364V7.8163C27.912 7.93857 27.8669 8.05665 27.7849 8.14738C27.703 8.23812 27.5901 8.29497 27.4684 8.30681V13.4492C27.4618 13.9101 27.5481 14.3675 27.7221 14.7943C27.896 15.2211 28.1542 15.6085 28.481 15.9334L29.6045 17.0568C30.1527 17.5987 30.5876 18.2444 30.8837 18.9562C31.1798 19.6679 31.3312 20.4315 31.3291 21.2024V45.3796C31.3291 45.7992 31.1624 46.2017 30.8657 46.4984C30.569 46.7952 30.1665 46.9619 29.7469 46.9619H20.5696C20.15 46.9619 19.7475 46.7952 19.4508 46.4984C19.1541 46.2017 18.9874 45.7992 18.9874 45.3796V21.1549C19.0028 19.6047 19.6148 18.1201 20.6962 17.0093L21.7405 15.9334Z" fill="white"/>
</svg>
