<svg width="50" height="50" viewBox="0 0 50 50" fill="none" xmlns="http://www.w3.org/2000/svg">
<path d="M25 50C29.9446 50 34.7781 48.5338 38.8893 45.7868C43.0005 43.0398 46.2048 39.1353 48.097 34.5671C49.9892 29.999 50.4843 24.9723 49.5197 20.1228C48.555 15.2732 46.174 10.8187 42.6777 7.32235C39.1814 3.82603 34.7268 1.44501 29.8773 0.48038C25.0278 -0.484252 20.0011 0.0108322 15.4329 1.90302C10.8648 3.79522 6.9603 6.99953 4.21326 11.1108C1.46623 15.222 0 20.0555 0 25C0 31.6304 2.63392 37.9893 7.32234 42.6777C12.0107 47.3661 18.3696 50 25 50Z" fill="#751B42"/>
<path d="M13.7974 18.0854C14.633 18.0854 15.4498 17.8376 16.1446 17.3734C16.8393 16.9092 17.3808 16.2494 17.7005 15.4774C18.0203 14.7054 18.104 13.856 17.941 13.0365C17.7779 12.217 17.3756 11.4642 16.7847 10.8734C16.1939 10.2825 15.4411 9.88018 14.6216 9.71716C13.8021 9.55415 12.9527 9.63782 12.1807 9.95757C11.4088 10.2773 10.749 10.8188 10.2847 11.5136C9.82053 12.2083 9.57275 13.0251 9.57275 13.8607C9.57692 14.9798 10.0234 16.052 10.8147 16.8434C11.6061 17.6348 12.6783 18.0812 13.7974 18.0854Z" fill="white"/>
<path d="M25.3956 18.0853C26.2319 18.0885 27.0502 17.8434 27.747 17.381C28.4439 16.9187 28.9878 16.26 29.31 15.4884C29.6322 14.7167 29.7181 13.8667 29.5569 13.0462C29.3957 12.2256 28.9946 11.4714 28.4044 10.879C27.8142 10.2866 27.0614 9.88263 26.2415 9.71833C25.4215 9.55403 24.5713 9.63677 23.7984 9.95605C23.0255 10.2753 22.3648 10.8168 21.8999 11.5119C21.435 12.207 21.1868 13.0244 21.1868 13.8606C21.1868 14.9784 21.6297 16.0505 22.4186 16.8424C23.2074 17.6342 24.2779 18.0811 25.3956 18.0853Z" fill="white"/>
<path d="M37.0095 18.0854C37.845 18.0854 38.6618 17.8376 39.3566 17.3734C40.0513 16.9092 40.5928 16.2494 40.9126 15.4774C41.2323 14.7054 41.316 13.856 41.153 13.0365C40.99 12.217 40.5876 11.4642 39.9968 10.8734C39.4059 10.2825 38.6532 9.88018 37.8337 9.71716C37.0142 9.55415 36.1647 9.63782 35.3928 9.95757C34.6208 10.2773 33.961 10.8188 33.4968 11.5136C33.0326 12.2083 32.7848 13.0251 32.7848 13.8607C32.789 14.9798 33.2354 16.052 34.0268 16.8434C34.8182 17.6348 35.8903 18.0812 37.0095 18.0854Z" fill="white"/>
<path d="M19.6043 30.4589C20.4399 30.4589 21.2567 30.2111 21.9514 29.7469C22.6462 29.2827 23.1877 28.6229 23.5074 27.8509C23.8272 27.079 23.9108 26.2295 23.7478 25.41C23.5848 24.5905 23.1825 23.8377 22.5916 23.2469C22.0008 22.6561 21.248 22.2537 20.4285 22.0907C19.609 21.9277 18.7596 22.0114 17.9876 22.3311C17.2157 22.6509 16.5558 23.1924 16.0916 23.8871C15.6274 24.5818 15.3796 25.3986 15.3796 26.2342C15.3796 27.3547 15.8247 28.4292 16.617 29.2215C17.4093 30.0138 18.4839 30.4589 19.6043 30.4589Z" fill="white"/>
<path d="M31.2025 30.4589C32.038 30.4589 32.8548 30.2111 33.5496 29.7469C34.2443 29.2827 34.7858 28.6229 35.1056 27.8509C35.4253 27.079 35.509 26.2295 35.346 25.41C35.183 24.5905 34.7806 23.8377 34.1898 23.2469C33.5989 22.6561 32.8462 22.2537 32.0267 22.0907C31.2072 21.9277 30.3577 22.0114 29.5858 22.3311C28.8138 22.6509 28.154 23.1924 27.6898 23.8871C27.2256 24.5818 26.9778 25.3986 26.9778 26.2342C26.982 27.3534 27.4284 28.4255 28.2198 29.2169C29.0112 30.0083 30.0833 30.4547 31.2025 30.4589Z" fill="white"/>
<path d="M25.0001 43.4176C25.8356 43.4176 26.6524 43.1699 27.3472 42.7057C28.0419 42.2414 28.5834 41.5816 28.9032 40.8097C29.2229 40.0377 29.3066 39.1883 29.1436 38.3688C28.9806 37.5492 28.5782 36.7965 27.9874 36.2056C27.3966 35.6148 26.6438 35.2124 25.8243 35.0494C25.0048 34.8864 24.1553 34.9701 23.3834 35.2898C22.6114 35.6096 21.9516 36.1511 21.4874 36.8458C21.0232 37.5406 20.7754 38.3574 20.7754 39.193C20.7754 39.7477 20.8847 40.2971 21.097 40.8097C21.3093 41.3222 21.6205 41.788 22.0128 42.1803C22.4051 42.5726 22.8708 42.8837 23.3834 43.0961C23.8959 43.3084 24.4453 43.4176 25.0001 43.4176Z" fill="white"/>
</svg>
