<svg width="184" height="44" viewBox="0 0 184 44" fill="none" xmlns="http://www.w3.org/2000/svg">
<path d="M174.6 38.6641C174.6 39.8838 175.084 41.0536 175.946 41.9161C176.809 42.7786 177.978 43.2631 179.198 43.2631C180.417 43.2631 181.587 42.7786 182.449 41.9161C183.311 41.0536 183.796 39.8838 183.796 38.6641V5.36689C183.796 4.14716 183.311 2.97739 182.449 2.11491C181.587 1.25243 180.417 0.767895 179.198 0.767895C177.978 0.767895 176.809 1.25243 175.946 2.11491C175.084 2.97739 174.6 4.14716 174.6 5.36689V38.6641ZM149 43.5179H149.595C150.734 43.5384 151.851 43.1971 152.784 42.5429C153.717 41.8888 154.418 40.9557 154.788 39.8776L168.461 7.21135C168.756 6.57514 168.921 5.88604 168.946 5.18487C168.945 4.59495 168.825 4.01126 168.595 3.46806C168.365 2.92487 168.029 2.43311 167.606 2.02166C167.184 1.61021 166.683 1.28736 166.134 1.07206C165.585 0.856759 164.998 0.753348 164.408 0.767895C163.461 0.757647 162.533 1.03052 161.742 1.55155C160.95 2.07257 160.333 2.81801 159.968 3.69232L149.413 31.0315L138.979 3.98355C138.646 3.02118 138.015 2.19026 137.177 1.61185C136.339 1.03344 135.338 0.737767 134.32 0.767895C133.719 0.756557 133.121 0.865749 132.562 1.08904C132.003 1.31234 131.494 1.64522 131.065 2.06811C130.637 2.49099 130.297 2.99533 130.067 3.55143C129.836 4.10753 129.719 4.70417 129.722 5.30622C129.752 6.07182 129.938 6.82326 130.268 7.51471L143.808 39.914C144.177 40.9921 144.879 41.9252 145.812 42.5793C146.745 43.2335 147.861 43.5748 149 43.5543M99.0519 42.8991H122.504C123.041 42.9055 123.574 42.8056 124.073 42.605C124.571 42.4045 125.026 42.1074 125.409 41.7307C125.792 41.3541 126.097 40.9053 126.307 40.4102C126.516 39.9152 126.625 39.3836 126.629 38.8461C126.625 37.754 126.189 36.7077 125.416 35.9366C124.643 35.1655 123.595 34.7325 122.504 34.7325H103.589V25.9471H119.519C120.056 25.9535 120.59 25.8536 121.088 25.6531C121.587 25.4526 122.041 25.1554 122.424 24.7788C122.808 24.4021 123.113 23.9533 123.322 23.4583C123.531 22.9632 123.641 22.4316 123.644 21.8942C123.641 20.802 123.205 19.7558 122.432 18.9847C121.658 18.2135 120.611 17.7805 119.519 17.7805H103.589V9.28636H122.212C122.749 9.29115 123.281 9.19004 123.778 8.98881C124.275 8.78757 124.728 8.49018 125.11 8.11367C125.492 7.73716 125.796 7.28893 126.005 6.79468C126.213 6.30043 126.322 5.76987 126.325 5.23341C126.322 4.14227 125.888 3.09655 125.118 2.32386C124.348 1.55117 123.303 1.11406 122.212 1.10766H99.0519C98.4461 1.10443 97.8457 1.22158 97.2856 1.45232C96.7255 1.68305 96.2168 2.02278 95.789 2.45177C95.3612 2.88076 95.0229 3.39047 94.7937 3.9513C94.5645 4.51214 94.4489 5.11293 94.4538 5.71879V38.3122C94.4505 38.9165 94.5673 39.5154 94.7974 40.0742C95.0275 40.6329 95.3663 41.1404 95.794 41.5671C96.2218 41.9939 96.7301 42.3314 97.2894 42.56C97.8486 42.7887 98.4477 42.9039 99.0519 42.8991ZM67.3017 38.6641C67.3017 39.8838 67.7861 41.0536 68.6485 41.9161C69.5108 42.7786 70.6803 43.2631 71.8998 43.2631C73.1193 43.2631 74.2889 42.7786 75.1512 41.9161C76.0135 41.0536 76.498 39.8838 76.498 38.6641V9.60185H85.3303C86.4565 9.60185 87.5365 9.15439 88.3329 8.35791C89.1292 7.56142 89.5766 6.48116 89.5766 5.35476C89.5766 4.22836 89.1292 3.14809 88.3329 2.35161C87.5365 1.55512 86.4565 1.10766 85.3303 1.10766H58.4694C57.3432 1.10766 56.2632 1.55512 55.4668 2.35161C54.6705 3.14809 54.2231 4.22836 54.2231 5.35476C54.2231 6.48116 54.6705 7.56142 55.4668 8.35791C56.2632 9.15439 57.3432 9.60185 58.4694 9.60185H67.3017V38.6641ZM39.7372 38.6641C39.7051 39.2871 39.8002 39.9101 40.0165 40.4953C40.2328 41.0804 40.5659 41.6154 40.9954 42.0677C41.425 42.52 41.9421 42.8801 42.5152 43.1262C43.0883 43.3724 43.7055 43.4993 44.3292 43.4993C44.9529 43.4993 45.5701 43.3724 46.1433 43.1262C46.7164 42.8801 47.2335 42.52 47.663 42.0677C48.0926 41.6154 48.4257 41.0804 48.642 40.4953C48.8583 39.9101 48.9533 39.2871 48.9213 38.6641V5.36689C48.9533 4.74388 48.8583 4.12086 48.642 3.53575C48.4257 2.95063 48.0926 2.41565 47.663 1.96335C47.2335 1.51105 46.7164 1.15088 46.1433 0.904769C45.5701 0.658656 44.9529 0.531738 44.3292 0.531738C43.7055 0.531738 43.0883 0.658656 42.5152 0.904769C41.9421 1.15088 41.425 1.51105 40.9954 1.96335C40.5659 2.41565 40.2328 2.95063 40.0165 3.53575C39.8002 4.12086 39.7051 4.74388 39.7372 5.36689V38.6641ZM17.7777 43.5179C26.792 43.5179 33.1129 38.8583 33.1129 30.5582V30.4369C33.1129 23.1562 28.345 20.1104 19.8645 17.9019C12.6458 16.0574 10.8502 15.1595 10.8502 12.4171V12.2957C10.8502 10.2693 12.7064 8.65536 16.2248 8.65536C19.3469 8.78714 22.3763 9.75523 24.9964 11.4584C25.6952 11.8932 26.503 12.1204 27.3258 12.1137C28.2575 12.1274 29.1678 11.8341 29.9165 11.2792C30.6651 10.7243 31.2104 9.9385 31.4684 9.04297C31.7264 8.14743 31.6827 7.19189 31.3441 6.32364C31.0054 5.4554 30.3907 4.72265 29.5946 4.23838C25.6213 1.77364 21.0207 0.509497 16.3461 0.598011C7.85353 0.598011 1.78739 5.60958 1.78739 13.1937V13.315C1.72673 21.5301 7.10133 23.86 15.5939 26.0078C22.57 27.8037 24.0016 28.9929 24.0016 31.3227V31.4441C24.0016 33.871 21.745 35.3878 17.9355 35.3878C14.0556 35.3454 10.2983 34.0231 7.24692 31.6261C6.50013 31.081 5.59933 30.7878 4.67487 30.7888C4.11331 30.7791 3.55546 30.8816 3.03398 31.0902C2.51251 31.2988 2.0379 31.6094 1.63794 32.0038C1.23798 32.3982 0.920713 32.8685 0.704719 33.387C0.488726 33.9056 0.378346 34.462 0.380043 35.0237C0.377204 35.6947 0.531556 36.357 0.830728 36.9576C1.1299 37.5582 1.56557 38.0803 2.10283 38.4821C6.67565 41.7516 12.1566 43.5083 17.7777 43.5058" fill="white"/>
</svg>
