<svg width="299" height="83" viewBox="0 0 299 83" fill="none" xmlns="http://www.w3.org/2000/svg">
<g clip-path="url(#clip0_602_8961)">
<path d="M165.685 82.0627C169.296 82.0627 171.848 80.1851 171.848 76.8631V76.815C171.848 73.9022 169.922 72.6746 166.528 71.7839C163.615 71.0377 162.893 70.6766 162.893 69.5693V69.5211C162.893 68.7027 163.639 68.0527 165.06 68.0527C166.215 68.0527 167.37 68.4619 168.574 69.1841C168.863 69.3526 169.152 69.4489 169.513 69.4489C170.476 69.4489 171.246 68.7027 171.246 67.7398C171.246 67.0176 170.837 66.5121 170.428 66.2714C168.911 65.3085 167.154 64.7789 165.108 64.7789C161.689 64.7789 159.234 66.7769 159.234 69.834V69.8822C159.234 73.2282 161.425 74.143 164.795 75.0096C167.611 75.7317 168.189 76.2132 168.189 77.152V77.2001C168.189 78.1871 167.274 78.7889 165.758 78.7889C164.121 78.7889 162.725 78.2111 161.473 77.2723C161.232 77.1038 160.895 76.9353 160.414 76.9353C159.451 76.9353 158.68 77.6816 158.68 78.6444C158.68 79.2222 158.969 79.7518 159.379 80.0406C161.256 81.3887 163.471 82.0627 165.685 82.0627ZM174.52 80.1128C174.52 81.1479 175.338 81.9664 176.373 81.9664C177.409 81.9664 178.227 81.1479 178.227 80.1128V66.7287C178.227 65.6936 177.409 64.8752 176.373 64.8752C175.338 64.8752 174.52 65.6936 174.52 66.7287V80.1128ZM185.593 80.1128C185.593 81.1479 186.412 81.9664 187.447 81.9664C188.482 81.9664 189.3 81.1479 189.3 80.1128V68.4379H192.839C193.778 68.4379 194.548 67.6676 194.548 66.7287C194.548 65.7899 193.778 65.0196 192.839 65.0196H182.054C181.116 65.0196 180.345 65.7899 180.345 66.7287C180.345 67.6676 181.116 68.4379 182.054 68.4379H185.593V80.1128ZM198.351 81.822H207.763C208.678 81.822 209.424 81.0998 209.424 80.1851C209.424 79.2703 208.678 78.5241 207.763 78.5241H200.157V74.9855H206.56C207.475 74.9855 208.221 74.2633 208.221 73.3486C208.221 72.4338 207.475 71.6876 206.56 71.6876H200.157V68.2694H207.643C208.558 68.2694 209.304 67.5472 209.304 66.6325C209.304 65.7177 208.558 64.9715 207.643 64.9715H198.351C197.316 64.9715 196.498 65.7899 196.498 66.825V79.9203C196.498 80.9554 197.316 81.7738 198.351 81.7738M218.427 82.0386H218.668C219.679 82.0386 220.377 81.485 220.762 80.5702L226.251 67.4268C226.347 67.2102 226.443 66.8973 226.443 66.6084C226.443 65.5974 225.625 64.827 224.614 64.827C223.723 64.827 223.073 65.4048 222.833 66.0066L218.596 76.9835L214.407 66.1269C214.119 65.3807 213.493 64.827 212.53 64.827C211.495 64.827 210.676 65.6214 210.676 66.6565C210.676 66.9695 210.772 67.2583 210.893 67.5472L216.333 80.5702C216.718 81.485 217.416 82.0386 218.427 82.0386ZM228.706 80.0647C228.706 81.0998 229.525 81.9183 230.56 81.9183C231.595 81.9183 232.413 81.0998 232.413 80.0647V66.6806C232.413 65.6455 231.595 64.827 230.56 64.827C229.525 64.827 228.706 65.6455 228.706 66.6806V80.0647ZM241.368 80.0166C241.368 81.1239 242.211 81.7738 243.366 81.7738H252.489C253.38 81.7738 254.102 81.0757 254.102 80.1851C254.102 79.2944 253.38 78.5722 252.489 78.5722H246.64L249.384 76.4539C252.369 74.143 253.789 72.7708 253.789 69.9544V69.9063C253.789 66.7769 251.478 64.7308 248.012 64.7308C245.46 64.7308 243.896 65.6455 242.548 67.1861C242.283 67.4991 242.114 67.9323 242.114 68.3416C242.114 69.2804 242.861 70.0266 243.799 70.0266C244.377 70.0266 244.81 69.7618 245.051 69.497C245.99 68.486 246.736 68.0286 247.795 68.0286C249.119 68.0286 250.058 68.7989 250.058 70.2192C250.058 71.6395 249.24 72.5542 247.145 74.2392L242.379 78.1389C241.753 78.6444 241.416 79.2703 241.416 79.9925M263.322 82.0386C267.799 82.0386 270.808 78.2352 270.808 73.3726V73.3245C270.808 68.4619 267.823 64.6826 263.37 64.6826C258.917 64.6826 255.884 68.486 255.884 73.3726V73.4208C255.884 78.2834 258.82 82.0627 263.322 82.0627M263.37 78.7407C261.131 78.7407 259.663 76.4539 259.663 73.3967V73.3486C259.663 70.2673 261.107 68.0527 263.322 68.0527C265.537 68.0527 267.005 70.3636 267.005 73.3967V73.4449C267.005 76.478 265.585 78.7407 263.37 78.7407ZM272.18 80.0406C272.18 81.1479 273.023 81.7979 274.178 81.7979H283.278C284.168 81.7979 284.891 81.0998 284.891 80.2091C284.891 79.3185 284.168 78.5963 283.278 78.5963H277.428L280.172 76.478C283.133 74.167 284.578 72.7949 284.578 69.9785V69.9303C284.578 66.801 282.267 64.7548 278.8 64.7548C276.249 64.7548 274.684 65.6696 273.336 67.2102C273.071 67.5231 272.903 67.9564 272.903 68.3656C272.903 69.3045 273.649 70.0507 274.588 70.0507C275.165 70.0507 275.599 69.7859 275.839 69.5211C276.778 68.5101 277.524 68.0527 278.584 68.0527C279.908 68.0527 280.846 68.823 280.846 70.2433C280.846 71.6635 280.028 72.5783 277.958 74.2633L273.191 78.163C272.566 78.6685 272.229 79.2944 272.229 80.0166M292.882 82.0627C296.614 82.0627 298.925 79.7518 298.925 76.5742V76.5261C298.925 73.4208 296.71 72.2172 294.423 71.832L297.697 68.6786C298.371 68.0286 298.804 67.5231 298.804 66.6325C298.804 65.6214 298.01 64.9956 296.927 64.9956H288.742C287.875 64.9956 287.153 65.7177 287.153 66.5843C287.153 67.4509 287.875 68.1731 288.742 68.1731H293.894L290.644 71.471C290.066 72.0487 289.849 72.482 289.849 72.9875C289.849 73.8541 290.572 74.5763 291.438 74.5763H292.016C294.086 74.5763 295.29 75.3466 295.29 76.7187V76.7668C295.29 78.0186 294.303 78.813 292.907 78.813C291.583 78.813 290.572 78.3797 289.633 77.5612C289.344 77.3205 288.983 77.1038 288.453 77.1038C287.49 77.1038 286.672 77.9223 286.672 78.8852C286.672 79.4148 286.961 79.9203 287.298 80.2091C288.67 81.3887 290.475 82.1349 292.858 82.1349" fill="#ACB698"/>
<path d="M90.7969 14.3236V0.602539H293.966V50.7688M90.7969 60.8069V74.528H147.366" stroke="#ACB698" stroke-width="1.20361" stroke-linecap="round" stroke-linejoin="round"/>
</g>
<defs>
<clipPath id="clip0_602_8961">
<rect width="297.868" height="82.11" fill="white" transform="translate(0.935791 0.000976562)"/>
</clipPath>
</defs>
</svg>
