<svg width="33" height="20" viewBox="0 0 33 20" fill="none" xmlns="http://www.w3.org/2000/svg">
<path d="M0.948704 10.1582C0.846546 9.91872 0.846546 9.63917 0.948704 9.39968C0.999784 9.27995 1.07141 9.17024 1.17356 9.07028L10.0279 0.291945C10.4269 -0.0973151 11.0712 -0.0973151 11.4698 0.291945C11.8688 0.681206 11.8688 1.30991 11.4698 1.6989L4.36445 8.77068L31.1052 8.77096C31.6676 8.77096 32.1279 9.22009 32.1279 9.7689C32.1279 10.3177 31.6676 10.7668 31.1052 10.7668L4.35423 10.7668L11.4596 17.8386C11.8586 18.2279 11.8586 18.8566 11.4596 19.2456C11.255 19.4452 10.9993 19.5349 10.7334 19.5349C10.4674 19.5349 10.2117 19.4352 10.0071 19.2456L1.15276 10.4672C1.06059 10.3773 0.978974 10.2676 0.927895 10.1378L0.948704 10.1582Z" fill="#7B6A58"/>
</svg>
