<svg width="32" height="20" viewBox="0 0 32 20" fill="none" xmlns="http://www.w3.org/2000/svg">
<path d="M31.9234 10.1582C32.0256 9.91872 32.0256 9.63917 31.9234 9.39968C31.8723 9.27995 31.8007 9.17024 31.6985 9.07028L22.8442 0.291945C22.4452 -0.0973151 21.8009 -0.0973151 21.4023 0.291945C21.0033 0.681206 21.0033 1.30991 21.4023 1.6989L28.5076 8.77068L1.76694 8.77096C1.20449 8.77096 0.744202 9.22009 0.744202 9.7689C0.744202 10.3177 1.20449 10.7668 1.76694 10.7668L28.5179 10.7668L21.4125 17.8386C21.0135 18.2279 21.0135 18.8566 21.4125 19.2456C21.6171 19.4452 21.8728 19.5349 22.1387 19.5349C22.4047 19.5349 22.6604 19.4352 22.865 19.2456L31.7193 10.4672C31.8115 10.3773 31.8931 10.2676 31.9442 10.1378L31.9234 10.1582Z" fill="#7A8C5D"/>
</svg>
