<svg width="32" height="20" viewBox="0 0 32 20" fill="none" xmlns="http://www.w3.org/2000/svg">
<path d="M0.0766332 10.1582C-0.0255242 9.91872 -0.0255242 9.63917 0.0766332 9.39968C0.127713 9.27995 0.199336 9.17024 0.301493 9.07028L9.15586 0.291945C9.55479 -0.0973151 10.1991 -0.0973151 10.5978 0.291945C10.9967 0.681206 10.9967 1.30991 10.5978 1.6989L3.49238 8.77068L30.2331 8.77096C30.7955 8.77096 31.2558 9.22009 31.2558 9.7689C31.2558 10.3177 30.7955 10.7668 30.2331 10.7668L3.48216 10.7668L10.5876 17.8386C10.9865 18.2279 10.9865 18.8566 10.5876 19.2456C10.3829 19.4452 10.1273 19.5349 9.8613 19.5349C9.59534 19.5349 9.33965 19.4352 9.13505 19.2456L0.28069 10.4672C0.188519 10.3773 0.106903 10.2676 0.0558248 10.1378L0.0766332 10.1582Z" fill="#7A8C5D"/>
</svg>
