<svg xmlns="http://www.w3.org/2000/svg" xmlns:xlink="http://www.w3.org/1999/xlink" viewBox="0 0 317.47 138.89"><defs><style>.cls-1{fill:#fff;}.cls-2{fill:#181716;}.cls-3{fill:#b52873;}.cls-4{fill:url(#Dégradé_sans_nom_2);}.cls-5{fill:url(#Dégradé_sans_nom_2-2);}.cls-6{mask:url(#mask);}.cls-7{fill:#da6a0a;}.cls-8{mask:url(#mask-2);}.cls-9{fill:url(#Dégradé_sans_nom_3);}.cls-10{mask:url(#mask-3);}.cls-11{fill:url(#Dégradé_sans_nom_4);}.cls-12{mask:url(#mask-4);}.cls-13{fill:url(#Dégradé_sans_nom_5);}</style><linearGradient id="Dégradé_sans_nom_2" x1="81.09" y1="73.81" x2="66.1" y2="81.19" gradientTransform="matrix(1, 0, 0, -1, 0, 135.29)" gradientUnits="userSpaceOnUse"><stop offset="0" stop-color="#b52873"/><stop offset="0.99" stop-color="#b56780"/></linearGradient><linearGradient id="Dégradé_sans_nom_2-2" x1="61.68" y1="61.72" x2="85.21" y2="61.72" xlink:href="#Dégradé_sans_nom_2"/><mask id="mask" x="220.89" y="25.42" width="95.05" height="88.03" maskUnits="userSpaceOnUse"><g id="mask0_342_7832" data-name="mask0 342 7832"><path class="cls-1" d="M315.94,25.42H220.89v88h95.05Z"/></g></mask><mask id="mask-2" x="205.27" y="23.82" width="90.45" height="93.87" maskUnits="userSpaceOnUse"><g id="mask1_342_7832" data-name="mask1 342 7832"><path class="cls-1" d="M233.26,39.88c-1.52.86,5,15.21,14.5,32s18.49,29.8,20,28.95-5-15.21-14.5-32c-9.23-16.32-17.93-29-19.85-29h-.16"/></g></mask><linearGradient id="Dégradé_sans_nom_3" x1="261.23" y1="45.34" x2="248.91" y2="67.35" gradientTransform="matrix(1, 0, 0, -1, 0, 135.29)" gradientUnits="userSpaceOnUse"><stop offset="0" stop-color="#004b23"/><stop offset="0.01" stop-color="#004b23"/><stop offset="0.14" stop-color="#065023"/><stop offset="0.32" stop-color="#196024"/><stop offset="0.54" stop-color="#367824"/><stop offset="0.78" stop-color="#5f9b25"/><stop offset="1" stop-color="#8dc126"/></linearGradient><mask id="mask-3" x="181.85" y="0" width="135.63" height="138.89" maskUnits="userSpaceOnUse"><g id="mask2_342_7832" data-name="mask2 342 7832"><path class="cls-1" d="M246.83,67.19c-15,24-25.94,44.31-24.37,45.32s15-17.71,30-41.74,25.93-44.29,24.37-45.32h-.15c-2.11,0-15.25,18.35-29.89,41.77"/></g></mask><linearGradient id="Dégradé_sans_nom_4" x1="233.59" y1="39.21" x2="252.43" y2="70.42" gradientTransform="matrix(1, 0, 0, -1, 0, 135.29)" gradientUnits="userSpaceOnUse"><stop offset="0" stop-color="#4f1502"/><stop offset="0.02" stop-color="#521603"/><stop offset="0.34" stop-color="#822510"/><stop offset="0.62" stop-color="#a4311a"/><stop offset="0.85" stop-color="#b93820"/><stop offset="1" stop-color="#c13a22"/></linearGradient><mask id="mask-4" x="242.12" y="55.36" width="18.82" height="19.88" maskUnits="userSpaceOnUse"><g id="mask3_342_7832" data-name="mask3 342 7832"><path class="cls-1" d="M246.83,67.19l-.91,1.44c.6,1.1,1.22,2.19,1.84,3.29l1.9,3.32,2.84-4.52,1-1.55-.2-.35c-1.2-2.13-2.41-4.2-3.58-6.19Q248.28,64.88,246.83,67.19Z"/></g></mask><linearGradient id="Dégradé_sans_nom_5" x1="249.74" y1="67.27" x2="251.74" y2="70.57" gradientTransform="matrix(1, 0, 0, -1, 0, 135.29)" gradientUnits="userSpaceOnUse"><stop offset="0" stop-color="#502206"/><stop offset="0.63" stop-color="#6e2e12"/><stop offset="1" stop-color="#793216"/></linearGradient></defs><g id="Calque_2" data-name="Calque 2"><g id="Calque_1-2" data-name="Calque 1">


<a xlink:href="https://www.comexposium.com/" target="_blank"><g id="comexposium"><path class="cls-2" d="M178.47,72.63h3.35V56.17h-3l-6.07,7.33-6.07-7.33h-3V72.63H167V61.52l5.42,6.62h.6l5.44-6.62ZM149.74,56.17h-3.35v9.51c0,4.19,2.54,7.22,7.36,7.22s7.43-3.35,7.43-7.22V56.17h-3.35v9.27c0,2.54-1.34,4.31-4.08,4.31s-4-1.67-4-4.28Zm-9.16,16.46h3.35V56.17h-3.35Zm-7.47-6.44c1.45.41,2.32.85,2.32,1.75,0,1.1-1.09,1.84-3.06,1.84a9.66,9.66,0,0,1-5-1.55l-.78,3.22a12.69,12.69,0,0,0,5.73,1.43c3.92,0,6.61-2.11,6.61-5.21,0-2.35-1.45-3.71-4.35-4.55l-3-.87c-1.17-.34-1.77-.71-1.77-1.61s.86-1.59,2.91-1.59a10,10,0,0,1,5,1.38l.95-3.17A13.07,13.07,0,0,0,132.81,56c-4.47,0-6.51,2.25-6.51,5,0,2.23,1.27,3.75,3.73,4.41Zm-20.93-1.77a5.08,5.08,0,1,1,5.09,5.29A5,5,0,0,1,112.18,64.42Zm-3.29,0A8.24,8.24,0,0,0,114,72.3a8,8,0,0,0,3.23.59,8.49,8.49,0,1,0-8.35-8.47Zm-6.71-5.3a2.82,2.82,0,0,1,3,3,2.9,2.9,0,0,1-.2,1.16,2.81,2.81,0,0,1-.64,1,2.74,2.74,0,0,1-1,.64,2.84,2.84,0,0,1-1.15.19h-3.9v-6ZM94.94,72.63h3.34V68.08h4.42a5.69,5.69,0,0,0,5.9-5.91c0-4.12-2.72-6-5.9-6H94.94Z"/><path class="cls-2" d="M67.77,72.67v-3H58.11v-4H66v-3H58.11V59.15h9.66v-3H54.91v16.5Zm-18.9,0h3.35V56.17h-3l-6.08,7.36-6.08-7.36H34v16.5h3.35V61.52l5.44,6.65h.6l5.45-6.65ZM18.92,64.44A5.09,5.09,0,1,1,24,69.72,5,5,0,0,1,18.92,64.44Zm-3.3,0a8.27,8.27,0,0,0,5.12,7.87A8.15,8.15,0,0,0,24,72.9a8.49,8.49,0,0,0,0-17A8.21,8.21,0,0,0,15.62,64.44Z"/><path class="cls-2" d="M13.92,58.41c-1.09-1.59-3-2.49-5.55-2.49C3.56,55.92,0,59.08,0,64.44S3.56,72.9,8.37,72.9a10,10,0,0,0,6.68-2.67l-1.58-2.55a7.55,7.55,0,0,1-5,2.07c-3,0-5-1.94-5-5.31s2-5.36,4.86-5.36a3.37,3.37,0,0,1,2.88,1.25Z"/><path class="cls-3" d="M76.1,64.52l-7.89-9.91s-.95-1.21.86-1.33,6,0,6,0a2.79,2.79,0,0,1,1.92.87c1.09,1.1,8.24,10.38,8.24,10.38Z"/><path class="cls-4" d="M76.1,64.52l-7.89-9.91s-.95-1.21.86-1.33,6,0,6,0a2.79,2.79,0,0,1,1.92.87c1.09,1.1,8.24,10.38,8.24,10.38Z"/><path class="cls-3" d="M85.21,64.53,70.6,81.74a3.61,3.61,0,0,1-2.66.86H62.4a.78.78,0,0,1-.34-.09.76.76,0,0,1-.26-.24c-.18-.26-.19-.62.25-1.22.85-1.15,14-16.53,14-16.53Z"/><path class="cls-5" d="M85.21,64.53,70.6,81.74a3.61,3.61,0,0,1-2.66.86H62.4a.78.78,0,0,1-.34-.09.76.76,0,0,1-.26-.24c-.18-.26-.19-.62.25-1.22.85-1.15,14-16.53,14-16.53Z"/></g></a>



<a xlink:href="https://www.axema.fr/" target="_blank"><g id="axema"><path class="cls-2" d="M86.28,63.87l-3.47-4.34s1.74-2.18,2.06-2.6a2.62,2.62,0,0,1,.9-.68A2.57,2.57,0,0,1,86.86,56H91a.76.76,0,0,1,.43.14.77.77,0,0,1,.29.35.73.73,0,0,1,.06.41.68.68,0,0,1-.18.38c-.84,1-5.31,6.6-5.31,6.6"/><path class="cls-2" d="M86.28,65.65l-3.47,4.26,1.29,1.82a3.26,3.26,0,0,0,2.3,1.15h3.92a.68.68,0,0,0,.42-.11.8.8,0,0,0,.3-.33.79.79,0,0,0,.07-.43A.77.77,0,0,0,91,71.6c-.63-.79-4.67-5.95-4.67-5.95"/><g class="cls-6"><path d="M236.29,73.36v-.24a1.55,1.55,0,0,0,.89-.21c.18-.13.18-.4,0-.8l-1.61-3.66h-7.74l-1.44,3.37a1.46,1.46,0,0,0-.18,1c.08.22.4.34.95.34v.24h-3.6v-.24a1.38,1.38,0,0,0,.52-.17,1.7,1.7,0,0,0,.38-.33,2.14,2.14,0,0,0,.3-.44l.21-.48,6.6-14.82H233l6.85,15.39a1.4,1.4,0,0,0,.44.55,1.3,1.3,0,0,0,.66.25v.24Zm-4.55-14-3.39,7.85h6.8Z"/><path d="M274,73.36H262.22v-.24a1.66,1.66,0,0,0,1-.21,1.56,1.56,0,0,0,.2-1V58.48a1.62,1.62,0,0,0-.2-1,1.72,1.72,0,0,0-1-.2v-.24H273.7v2.48h-.36c-.08-.61-.28-1-.6-1.12a3.56,3.56,0,0,0-1.33-.2H266.2c-.29,0-.45,0-.49.08a.94.94,0,0,0,0,.47v5.51h5.94a1.17,1.17,0,0,0,.51-.16.74.74,0,0,0,.29-.36,2.94,2.94,0,0,0,.16-.65h.33v3.64h-.33a3.2,3.2,0,0,0-.16-.68.82.82,0,0,0-.29-.37,1.5,1.5,0,0,0-.5-.18h-6V71.8a.27.27,0,0,0,0,.18.31.31,0,0,0,.11.14.73.73,0,0,0,.34.14h5a9.55,9.55,0,0,0,1.07,0,2.28,2.28,0,0,0,.8-.26,2.13,2.13,0,0,0,.65-.5,4,4,0,0,0,.54-.88h.41Z"/><path d="M292.29,73.36v-.24a3.75,3.75,0,0,0,.67,0,.77.77,0,0,0,.4-.16.57.57,0,0,0,.18-.34,2.29,2.29,0,0,0,0-.64v-13L287,73.38h-.87l-6.59-14.13V72.12a1.18,1.18,0,0,0,.13.56.56.56,0,0,0,.16.21A.58.58,0,0,0,280,73a2.16,2.16,0,0,0,.8.12v.24h-4.14v-.24a2.41,2.41,0,0,0,.84-.12.73.73,0,0,0,.41-.32,1.38,1.38,0,0,0,.12-.56V58.49a1.94,1.94,0,0,0,0-.68.56.56,0,0,0-.21-.35.8.8,0,0,0-.43-.13h-.68v-.24h4L287,70.42l6.07-13.33h4v.24a3.64,3.64,0,0,0-.66,0,.73.73,0,0,0-.37.16.62.62,0,0,0-.16.36,3.32,3.32,0,0,0,0,.63V71.94a3.42,3.42,0,0,0,0,.64.6.6,0,0,0,.16.34.65.65,0,0,0,.37.16,3.64,3.64,0,0,0,.66,0v.24Z"/><path d="M311.3,73.36v-.24a1.5,1.5,0,0,0,.88-.21c.19-.13.19-.4,0-.8l-1.6-3.66h-7.74l-1.44,3.37a1.46,1.46,0,0,0-.18,1c.08.22.4.34.95.34v.24h-3.61v-.24a1.38,1.38,0,0,0,.53-.17,1.7,1.7,0,0,0,.38-.33,1.37,1.37,0,0,0,.28-.44c.08-.16.16-.32.23-.48l6.58-14.82H308l6.85,15.39a1.31,1.31,0,0,0,.45.54,1.41,1.41,0,0,0,.66.26v.24Zm-4.55-14-3.41,7.85h6.8Z"/><path class="cls-7" d="M245.33,48.59a4.22,4.22,0,1,1,8.39,0,4.65,4.65,0,0,1-.19,1.78,4.51,4.51,0,0,1-.86,1.58,4.6,4.6,0,0,1-3.13,1.62,4.64,4.64,0,0,1-4.21-5"/><path class="cls-7" d="M253.77,39a3.61,3.61,0,0,1,.17-1.35,3.57,3.57,0,0,1,.68-1.18,3.53,3.53,0,0,1,2.4-1.19A3.56,3.56,0,0,1,260.14,39a3.2,3.2,0,1,1-6.37,0Z"/><path class="cls-7" d="M240.29,40.7a2.36,2.36,0,0,1,2.16-2.56,2.42,2.42,0,0,1,2.18,2.57,2.45,2.45,0,0,1-.56,1.72,2.41,2.41,0,0,1-1.61.84,2.44,2.44,0,0,1-1.61-.85A2.36,2.36,0,0,1,240.29,40.7Z"/></g><g class="cls-8"><path class="cls-9" d="M260.3,23.82l-55,30.79,35.42,63.09,55-30.79Z"/></g><g class="cls-10"><path class="cls-11" d="M236.3,0,181.85,89.9l81.17,49L317.47,49Z"/></g><g class="cls-12"><path class="cls-13" d="M249.78,55.36,242.12,68l11.18,6.74L261,62.1Z"/></g></g></a>


</g></g></svg>