<svg width="22" height="16" viewBox="0 0 22 16" fill="none" xmlns="http://www.w3.org/2000/svg">
<g clip-path="url(#clip0_154_5659)">
<mask id="mask0_154_5659" style="mask-type:luminance" maskUnits="userSpaceOnUse" x="0" y="0" width="22" height="16">
<path d="M22 0H0V16H22V0Z" fill="white"/>
</mask>
<g mask="url(#mask0_154_5659)">
<mask id="mask1_154_5659" style="mask-type:luminance" maskUnits="userSpaceOnUse" x="0" y="0" width="22" height="16">
<path d="M20 0H2C0.89543 0 0 0.89543 0 2V14C0 15.1046 0.89543 16 2 16H20C21.1046 16 22 15.1046 22 14V2C22 0.89543 21.1046 0 20 0Z" fill="white"/>
</mask>
<g mask="url(#mask1_154_5659)">
<path d="M20 0H2C0.89543 0 0 0.89543 0 2V14C0 15.1046 0.89543 16 2 16H20C21.1046 16 22 15.1046 22 14V2C22 0.89543 21.1046 0 20 0Z" fill="#1A47B8"/>
<path fill-rule="evenodd" clip-rule="evenodd" d="M2.34035 0H0V2.66667L19.6469 16H22V13.3333L2.34035 0Z" fill="white"/>
<path d="M0.780579 0L22 14.4378V16H21.2377L0 1.54726V0H0.780579Z" fill="#F93939"/>
<path fill-rule="evenodd" clip-rule="evenodd" d="M19.9048 0H22V2.66667C22 2.66667 8.39123 11.5499 2.09524 16H0V13.3333L19.9048 0Z" fill="white"/>
<path d="M22 0H21.2895L0 14.4502V16H0.780579L22 1.55895V0Z" fill="#F93939"/>
<path fill-rule="evenodd" clip-rule="evenodd" d="M8.00075 0H14.0176V4.93527H22V11.0615H14.0176V16H8.00075V11.0615H0V4.93527H8.00075V0Z" fill="white"/>
<path fill-rule="evenodd" clip-rule="evenodd" d="M9.26316 0H12.7368V6.15385H22V9.84615H12.7368V16H9.26316V9.84615H0V6.15385H9.26316V0Z" fill="#F93939"/>
</g>
</g>
</g>
<defs>
<clipPath id="clip0_154_5659">
<rect width="22" height="16" fill="white"/>
</clipPath>
</defs>
</svg>
