<svg width="22" height="16" viewBox="0 0 22 16" fill="none" xmlns="http://www.w3.org/2000/svg">
<g clip-path="url(#clip0_154_5455)">
<mask id="mask0_154_5455" style="mask-type:luminance" maskUnits="userSpaceOnUse" x="0" y="0" width="22" height="16">
<path d="M22 0H0V16H22V0Z" fill="white"/>
</mask>
<g mask="url(#mask0_154_5455)">
<mask id="mask1_154_5455" style="mask-type:luminance" maskUnits="userSpaceOnUse" x="0" y="0" width="22" height="16">
<path d="M20 0H2C0.89543 0 0 0.89543 0 2V14C0 15.1046 0.89543 16 2 16H20C21.1046 16 22 15.1046 22 14V2C22 0.89543 21.1046 0 20 0Z" fill="white"/>
</mask>
<g mask="url(#mask1_154_5455)">
<path d="M20 0H2C0.89543 0 0 0.89543 0 2V14C0 15.1046 0.89543 16 2 16H20C21.1046 16 22 15.1046 22 14V2C22 0.89543 21.1046 0 20 0Z" fill="white"/>
<path fill-rule="evenodd" clip-rule="evenodd" d="M0 0H7V16H0V0Z" fill="#1A47B8"/>
<path fill-rule="evenodd" clip-rule="evenodd" d="M15 0H22V16H15V0Z" fill="#F93939"/>
</g>
</g>
</g>
<defs>
<clipPath id="clip0_154_5455">
<rect width="22" height="16" fill="white"/>
</clipPath>
</defs>
</svg>
