<svg width="69" height="69" viewBox="0 0 69 69" fill="none" xmlns="http://www.w3.org/2000/svg">
<circle cx="34.36" cy="34.36" r="34.36" fill="#7A8C5D"/>
<path d="M47.72 25.0403C47.72 23.8329 47.0031 22.7598 45.2436 22.7598C42.8325 22.7598 39.9 23.9671 37.945 25.9793C35.5338 28.461 34.1001 32.0829 34.1001 36.9793V37.2476C34.1001 41.8756 36.2506 44.7598 39.9 44.7598C43.1583 44.7598 45.3088 42.4122 45.3088 39.2598V39.1256C45.3088 36.2415 43.028 34.2293 40.7471 33.6256C40.6168 30.4061 42.4415 28.0585 45.765 27.2537C46.8728 26.9854 47.72 26.2476 47.72 25.0403ZM33.3398 25.0403C33.3398 23.8329 32.623 22.7598 30.8635 22.7598C28.4523 22.7598 25.5198 23.9671 23.5648 25.9793C21.1536 28.461 19.72 32.0829 19.72 36.9793V37.2476C19.72 41.8756 21.8705 44.7598 25.5198 44.7598C28.7782 44.7598 30.9287 42.4122 30.9287 39.2598V39.1256C30.9287 36.2415 28.6478 34.2293 26.367 33.6256C26.2367 30.4061 28.0613 28.0585 31.3848 27.2537C32.4927 26.9854 33.3398 26.2476 33.3398 25.0403Z" fill="white"/>
</svg>
