<svg width="32" height="20" viewBox="0 0 32 20" fill="none" xmlns="http://www.w3.org/2000/svg">
<path d="M31.4233 10.1582C31.5255 9.91872 31.5255 9.63917 31.4233 9.39968C31.3723 9.27995 31.3006 9.17024 31.1985 9.07028L22.3441 0.291945C21.9452 -0.0973151 21.3008 -0.0973151 20.9022 0.291945C20.5033 0.681206 20.5033 1.30991 20.9022 1.6989L28.0076 8.77068L1.26688 8.77096C0.704433 8.77096 0.244141 9.22009 0.244141 9.7689C0.244141 10.3177 0.704433 10.7668 1.26688 10.7668L28.0178 10.7668L20.9124 17.8386C20.5135 18.2279 20.5135 18.8566 20.9124 19.2456C21.117 19.4452 21.3727 19.5349 21.6387 19.5349C21.9046 19.5349 22.1603 19.4352 22.3649 19.2456L31.2193 10.4672C31.3115 10.3773 31.3931 10.2676 31.4441 10.1378L31.4233 10.1582Z" fill="#7A8C5D"/>
</svg>
