<svg width="13" height="15" viewBox="0 0 13 15" fill="none" xmlns="http://www.w3.org/2000/svg">
<path d="M9.41414 8.83774C11.0784 7.58062 11.7518 5.40382 11.087 3.42997C10.4222 1.45612 8.56771 0.126282 6.48 0.126282C4.39229 0.126282 2.53782 1.45612 1.873 3.42997C1.20818 5.40382 1.88156 7.58062 3.54586 8.83774C1.44374 9.77618 0 11.6789 0 13.8737C0.113845 14.2781 0.357974 14.4802 0.732387 14.4802C1.1068 14.4802 1.34305 14.2781 1.44115 13.8737C1.44115 11.5858 3.70138 9.7374 6.48 9.7374C9.25862 9.7374 11.5188 11.5988 11.5188 13.8737C11.6133 14.2781 11.8537 14.4802 12.2399 14.4802C12.6261 14.4802 12.8661 14.2781 12.96 13.8737C12.96 11.6789 11.5163 9.77618 9.41414 8.83774ZM6.48 1.75684C8.2694 1.75684 9.72 3.20364 9.72 4.98836C9.72 6.77308 8.2694 8.21988 6.48 8.21988C4.69119 8.21845 3.24143 6.77249 3.24 4.98836C3.24 3.20364 4.6906 1.75684 6.48 1.75684Z" fill="white"/>
</svg>
