<svg width="33" height="20" viewBox="0 0 33 20" fill="none" xmlns="http://www.w3.org/2000/svg">
<path d="M1.02979 10.1582C0.927631 9.91872 0.927631 9.63917 1.02979 9.39968C1.08087 9.27995 1.15249 9.17024 1.25465 9.07028L10.109 0.291945C10.5079 -0.0973151 11.1523 -0.0973151 11.5509 0.291945C11.9499 0.681206 11.9499 1.30991 11.5509 1.6989L4.44554 8.77068L31.1862 8.77096C31.7487 8.77096 32.209 9.22009 32.209 9.7689C32.209 10.3177 31.7487 10.7668 31.1862 10.7668L4.43531 10.7668L11.5407 17.8386C11.9396 18.2279 11.9396 18.8566 11.5407 19.2456C11.3361 19.4452 11.0804 19.5349 10.8145 19.5349C10.5485 19.5349 10.2928 19.4352 10.0882 19.2456L1.23384 10.4672C1.14167 10.3773 1.06006 10.2676 1.00898 10.1378L1.02979 10.1582Z" fill="white"/>
</svg>
