<svg width="15" height="17" viewBox="0 0 15 17" fill="none" xmlns="http://www.w3.org/2000/svg">
<path d="M14.0867 5.93151C14.0282 5.16405 13.3947 4.56749 12.6251 4.55506H11.2061V3.75331C11.2061 1.68041 9.52567 0 7.45277 0C5.37987 0 3.69946 1.68041 3.69946 3.75331V4.55506H2.28044C1.51336 4.56716 0.880853 5.15975 0.818844 5.92441L0.25833 15.5099C0.222144 15.894 0.350518 16.2754 0.611579 16.5595C0.872641 16.8435 1.2419 17.0036 1.62769 16.9999H13.3346C13.715 17.0029 14.0794 16.8467 14.3395 16.569C14.5996 16.2914 14.7317 15.9177 14.704 15.5383L14.0867 5.93151ZM5.14686 3.75331C5.14686 2.46412 6.19196 1.41902 7.48115 1.41902C8.77034 1.41902 9.81544 2.46412 9.81544 3.75331V4.55506H5.14686V3.75331ZM1.67026 15.5809L2.3372 5.95989H3.75622V7.60595C3.75622 7.99781 4.07388 8.31546 4.46573 8.31546C4.85758 8.31546 5.17524 7.99781 5.17524 7.60595V5.98827H9.84382V7.60595C9.84382 7.99781 10.1615 8.31546 10.5533 8.31546C10.9452 8.31546 11.2628 7.99781 11.2628 7.60595V6.00956H12.6819L13.2849 15.5809H1.67026Z" fill="white"/>
</svg>
