<svg width="18" height="17" viewBox="0 0 18 17" fill="none" xmlns="http://www.w3.org/2000/svg">
<path fill-rule="evenodd" clip-rule="evenodd" d="M10.5403 11.0342L16.3054 16.7986C16.5738 17.0671 17.0102 17.0671 17.2786 16.7986C17.5471 16.5302 17.5471 16.0938 17.2786 15.8254L11.5142 10.0603C12.3622 9.00021 12.8695 7.656 12.8695 6.19475C12.8695 2.77596 10.0935 0 6.67473 0C3.25594 0 0.47998 2.77596 0.47998 6.19475C0.47998 9.61354 3.25594 12.3895 6.67473 12.3895C8.13598 12.3895 9.48019 11.8822 10.5403 11.0342ZM6.67473 1.37673C9.33364 1.37673 11.4929 3.53596 11.4929 6.19487C11.4929 8.85377 9.33364 11.013 6.67473 11.013C4.01583 11.013 1.85659 8.85377 1.85659 6.19487C1.85659 3.53596 4.01583 1.37673 6.67473 1.37673Z" fill="white"/>
</svg>
