<svg width="32" height="20" viewBox="0 0 32 20" fill="none" xmlns="http://www.w3.org/2000/svg">
<path d="M0.576664 10.1582C0.474506 9.91872 0.474506 9.63917 0.576664 9.39968C0.627745 9.27995 0.699366 9.17024 0.801523 9.07028L9.65589 0.291945C10.0548 -0.0973151 10.6992 -0.0973151 11.0978 0.291945C11.4967 0.681206 11.4967 1.30991 11.0978 1.6989L3.99241 8.77068L30.7331 8.77096C31.2956 8.77096 31.7559 9.22009 31.7559 9.7689C31.7559 10.3177 31.2956 10.7668 30.7331 10.7668L3.98219 10.7668L11.0876 17.8386C11.4865 18.2279 11.4865 18.8566 11.0876 19.2456C10.883 19.4452 10.6273 19.5349 10.3613 19.5349C10.0954 19.5349 9.83969 19.4352 9.63508 19.2456L0.78072 10.4672C0.688549 10.3773 0.606934 10.2676 0.555855 10.1378L0.576664 10.1582Z" fill="#7A8C5D"/>
</svg>
