<svg width="184" height="44" viewBox="0 0 184 44" fill="none" xmlns="http://www.w3.org/2000/svg">
<path d="M174.599 38.664C174.599 39.8838 175.084 41.0535 175.946 41.916C176.808 42.7785 177.978 43.263 179.197 43.263C180.417 43.263 181.587 42.7785 182.449 41.916C183.311 41.0535 183.796 39.8838 183.796 38.664V5.3668C183.796 4.14707 183.311 2.9773 182.449 2.11482C181.587 1.25234 180.417 0.767803 179.197 0.767803C177.978 0.767803 176.808 1.25234 175.946 2.11482C175.084 2.9773 174.599 4.14707 174.599 5.3668V38.664ZM149 43.5178H149.595C150.734 43.5383 151.85 43.197 152.783 42.5428C153.716 41.8887 154.418 40.9556 154.787 39.8775L168.46 7.21125C168.756 6.57505 168.921 5.88595 168.946 5.18478C168.944 4.59486 168.825 4.01117 168.595 3.46797C168.365 2.92477 168.029 2.43302 167.606 2.02157C167.183 1.61012 166.683 1.28727 166.134 1.07197C165.584 0.856666 164.998 0.753255 164.408 0.767803C163.461 0.757554 162.532 1.03043 161.741 1.55145C160.95 2.07248 160.333 2.81792 159.968 3.69223L149.413 31.0314L138.979 3.98346C138.646 3.02108 138.015 2.19017 137.177 1.61176C136.339 1.03335 135.338 0.737674 134.32 0.767803C133.718 0.756465 133.12 0.865657 132.561 1.08895C132.002 1.31225 131.494 1.64513 131.065 2.06801C130.637 2.4909 130.297 2.99523 130.066 3.55134C129.836 4.10744 129.719 4.70408 129.722 5.30613C129.752 6.07173 129.938 6.82316 130.268 7.51462L143.808 39.9139C144.177 40.992 144.879 41.9251 145.812 42.5792C146.745 43.2334 147.861 43.5747 149 43.5542M99.0516 42.899H122.503C123.041 42.9054 123.574 42.8055 124.073 42.605C124.571 42.4044 125.025 42.1073 125.409 41.7306C125.792 41.354 126.097 40.9052 126.306 40.4101C126.516 39.9151 126.625 39.3835 126.628 38.846C126.625 37.7539 126.189 36.7076 125.416 35.9365C124.643 35.1654 123.595 34.7324 122.503 34.7324H103.589V25.947H119.519C120.056 25.9534 120.589 25.8535 121.088 25.653C121.587 25.4525 122.041 25.1553 122.424 24.7787C122.807 24.402 123.113 23.9532 123.322 23.4582C123.531 22.9631 123.641 22.4316 123.644 21.8941C123.641 20.802 123.205 19.7557 122.431 18.9846C121.658 18.2135 120.611 17.7804 119.519 17.7805H103.589V9.28626H122.212C122.748 9.29106 123.281 9.18995 123.778 8.98871C124.275 8.78748 124.728 8.49009 125.11 8.11358C125.492 7.73707 125.796 7.28884 126.004 6.79459C126.213 6.30034 126.322 5.76978 126.325 5.23332C126.322 4.14218 125.888 3.09646 125.118 2.32377C124.347 1.55108 123.303 1.11397 122.212 1.10757H99.0516C98.4459 1.10434 97.8455 1.22149 97.2854 1.45223C96.7253 1.68296 96.2165 2.02269 95.7888 2.45168C95.361 2.88067 95.0227 3.39037 94.7934 3.95121C94.5642 4.51205 94.4487 5.11284 94.4535 5.7187V38.3121C94.4503 38.9164 94.5671 39.5153 94.7972 40.0741C95.0273 40.6328 95.366 41.1403 95.7938 41.567C96.2216 41.9938 96.7299 42.3313 97.2891 42.5599C97.8484 42.7886 98.4475 42.9038 99.0516 42.899ZM67.3015 38.664C67.3015 39.8838 67.7859 41.0535 68.6482 41.916C69.5105 42.7785 70.6801 43.263 71.8996 43.263C73.1191 43.263 74.2886 42.7785 75.151 41.916C76.0133 41.0535 76.4977 39.8838 76.4977 38.664V9.60176H85.33C86.4562 9.60176 87.5363 9.1543 88.3326 8.35781C89.1289 7.56133 89.5763 6.48106 89.5763 5.35466C89.5763 4.22827 89.1289 3.148 88.3326 2.35152C87.5363 1.55503 86.4562 1.10757 85.33 1.10757H58.4692C57.343 1.10757 56.2629 1.55503 55.4666 2.35152C54.6702 3.148 54.2229 4.22827 54.2229 5.35466C54.2229 6.48106 54.6702 7.56133 55.4666 8.35781C56.2629 9.1543 57.343 9.60176 58.4692 9.60176H67.3015V38.664ZM39.7369 38.664C39.7049 39.287 39.7999 39.91 40.0162 40.4952C40.2325 41.0803 40.5656 41.6153 40.9952 42.0676C41.4247 42.5199 41.9418 42.88 42.5149 43.1261C43.0881 43.3723 43.7053 43.4992 44.329 43.4992C44.9527 43.4992 45.5699 43.3723 46.143 43.1261C46.7162 42.88 47.2332 42.5199 47.6628 42.0676C48.0924 41.6153 48.4254 41.0803 48.6417 40.4952C48.858 39.91 48.9531 39.287 48.9211 38.664V5.3668C48.9531 4.74379 48.858 4.12077 48.6417 3.53566C48.4254 2.95054 48.0924 2.41556 47.6628 1.96326C47.2332 1.51095 46.7162 1.15079 46.143 0.904677C45.5699 0.658563 44.9527 0.531646 44.329 0.531646C43.7053 0.531646 43.0881 0.658563 42.5149 0.904677C41.9418 1.15079 41.4247 1.51095 40.9952 1.96326C40.5656 2.41556 40.2325 2.95054 40.0162 3.53566C39.7999 4.12077 39.7049 4.74379 39.7369 5.3668V38.664ZM17.7775 43.5178C26.7918 43.5178 33.1127 38.8582 33.1127 30.5581V30.4368C33.1127 23.1561 28.3447 20.1103 19.8642 17.9018C12.6455 16.0573 10.85 15.1594 10.85 12.417V12.2956C10.85 10.2692 12.7062 8.65526 16.2246 8.65526C19.3467 8.78705 22.3761 9.75513 24.9962 11.4583C25.6949 11.8931 26.5027 12.1203 27.3256 12.1136C28.2573 12.1273 29.1676 11.834 29.9162 11.2791C30.6648 10.7242 31.2101 9.93841 31.4681 9.04287C31.7261 8.14734 31.6824 7.1918 31.3438 6.32355C31.0052 5.4553 30.3904 4.72256 29.5943 4.23829C25.6211 1.77354 21.0205 0.509404 16.3459 0.597919C7.85328 0.597919 1.78714 5.60949 1.78714 13.1936V13.3149C1.72648 21.53 7.10108 23.8599 15.5937 26.0077C22.5697 27.8036 24.0013 28.9928 24.0013 31.3226V31.444C24.0013 33.8709 21.7447 35.3877 17.9352 35.3877C14.0554 35.3453 10.2981 34.023 7.24667 31.626C6.49989 31.0809 5.59909 30.7877 4.67463 30.7887C4.11306 30.779 3.55521 30.8815 3.03374 31.0901C2.51227 31.2988 2.03765 31.6094 1.63769 32.0037C1.23774 32.3981 0.920469 32.8684 0.704475 33.3869C0.488482 33.9055 0.378102 34.4619 0.379799 35.0237C0.37696 35.6946 0.531311 36.3569 0.830483 36.9575C1.12966 37.5581 1.56533 38.0802 2.10258 38.482C6.67541 41.7515 12.1564 43.5082 17.7775 43.5057" fill="white"/>
</svg>
