<svg width="266" height="77" viewBox="0 0 266 77" fill="none" xmlns="http://www.w3.org/2000/svg">
<path d="M237.871 49.9112H241.968V29.7543H238.28L230.856 38.736L223.427 29.7543H219.744V49.9112H223.836V36.3036L230.474 44.4114H231.207L237.871 36.3036V49.9112ZM202.697 29.7543H198.6V41.398C198.6 46.5285 201.71 50.231 207.606 50.231C213.502 50.231 216.701 46.1411 216.701 41.398V29.7543H212.604V41.1052C212.604 44.2177 210.969 46.3843 207.606 46.3843C204.243 46.3843 202.692 44.3393 202.692 41.1368L202.697 29.7543ZM191.491 49.9112H195.588V29.7543H191.491V49.9112ZM182.348 42.0241C184.125 42.5286 185.187 43.0646 185.187 44.1592C185.187 45.5105 183.854 46.4113 181.441 46.4113C179.261 46.3649 177.137 45.7087 175.301 44.515L174.337 48.4608C176.511 49.5841 178.912 50.1822 181.353 50.2085C186.151 50.2085 189.452 47.6275 189.452 43.8349C189.452 40.9566 187.675 39.299 184.121 38.263L180.437 37.1955C179.002 36.7811 178.274 36.3351 178.274 35.2361C178.274 34.137 179.327 33.2812 181.828 33.2812C183.974 33.3006 186.078 33.8825 187.937 34.9703L189.106 31.0876C186.878 30.0151 184.44 29.4684 181.975 29.4886C176.505 29.4886 174.017 32.2452 174.017 35.5919C174.017 38.3216 175.568 40.1864 178.58 40.9971L182.348 42.0241ZM156.734 39.862C156.734 36.155 159.338 33.3983 162.954 33.3983C166.571 33.3983 169.152 36.155 169.152 39.862C169.152 43.5691 166.606 46.3258 162.954 46.3258C159.302 46.3258 156.734 43.506 156.734 39.862ZM152.7 39.862C152.667 41.2316 152.909 42.5937 153.411 43.8657C153.913 45.1377 154.664 46.2931 155.62 47.2619C156.575 48.2306 157.715 48.9925 158.97 49.5013C160.224 50.0102 161.568 50.2554 162.919 50.222C168.797 50.222 173.182 45.7762 173.182 39.862C173.182 33.9478 168.797 29.457 162.919 29.457C157.041 29.457 152.7 33.9028 152.7 39.862ZM144.485 33.3713C146.502 33.3713 148.11 34.673 148.11 37.0739C148.13 37.5606 148.05 38.0462 147.874 38.4997C147.698 38.9532 147.432 39.3647 147.091 39.7079C146.749 40.0511 146.342 40.3186 145.893 40.4932C145.444 40.6679 144.965 40.7459 144.485 40.7224H139.718V33.3713H144.485ZM135.626 49.9112H139.718V44.3393H145.129C149.017 44.3393 152.349 41.6368 152.349 37.1054C152.349 32.065 149.017 29.7543 145.129 29.7543H135.626V49.9112Z" fill="#181716"/>
<path d="M102.375 49.9563V46.3077H90.5474V41.4205H100.238V37.7675H90.5474V33.4073H102.375V29.7543H86.6376V49.9563H102.375ZM79.2445 49.9563H83.3409V29.7543H79.6533L72.2158 38.763L64.7783 29.7543H61.0906V49.9563H65.187V36.3126L71.8514 44.4475H72.5845L79.249 36.3126L79.2445 49.9563ZM42.5857 39.8756C42.5857 36.1685 45.1892 33.4073 48.8058 33.4073C52.4224 33.4073 55.026 36.1685 55.026 39.8756C55.026 43.5826 52.4801 46.3483 48.8058 46.3483C45.1315 46.3483 42.5857 43.5286 42.5857 39.8756ZM38.5426 39.8756C38.5116 41.2446 38.7547 42.6059 39.2573 43.877C39.7599 45.1481 40.5115 46.3028 41.4666 47.2711C42.4218 48.2395 43.5606 49.0014 44.8145 49.5109C46.0683 50.0204 47.411 50.2669 48.7614 50.2355C54.6483 50.2355 59.038 45.7852 59.038 39.8756C59.038 33.9659 54.6483 29.457 48.7614 29.457C42.8745 29.457 38.5426 33.9118 38.5426 39.8756Z" fill="#181716"/>
<path d="M36.4588 32.4975C35.1259 30.5561 32.8156 29.457 29.6699 29.457C23.7875 29.457 19.4245 33.3172 19.4245 39.8756C19.4245 46.4339 23.7875 50.2355 29.6699 50.2355C32.6961 50.1986 35.6036 49.0365 37.8405 46.9699L35.9079 43.8529C34.2351 45.4285 32.0505 46.3276 29.7677 46.3798C26.1067 46.3798 23.6764 44.0015 23.6764 39.8756C23.6764 35.7496 26.1067 33.3172 29.6211 33.3172C31.2739 33.3172 32.4246 33.8803 33.1443 34.8532L36.4588 32.4975Z" fill="#181716"/>
<path d="M112.567 39.9833L102.908 27.8442C102.908 27.8442 101.744 26.3667 103.965 26.2271C106.187 26.0875 111.31 26.2271 111.31 26.2271C112.199 26.2603 113.041 26.6375 113.664 27.2811C114.997 28.6324 123.741 39.9923 123.741 39.9923L112.567 39.9833Z" fill="#B52873"/>
<path d="M112.567 39.9833L102.908 27.8442C102.908 27.8442 101.744 26.3667 103.965 26.2271C106.187 26.0875 111.31 26.2271 111.31 26.2271C112.199 26.2603 113.041 26.6375 113.664 27.2811C114.997 28.6324 123.741 39.9923 123.741 39.9923L112.567 39.9833Z" fill="url(#paint0_linear_27_1398)"/>
<path d="M123.719 39.9924L105.84 61.0547C105.84 61.0547 104.894 62.1087 102.579 62.1087H95.7948C95.6495 62.1037 95.5073 62.064 95.3799 61.9927C95.2525 61.9215 95.1435 61.8208 95.0618 61.6988C94.8485 61.3925 94.8352 60.9421 95.3772 60.2124C96.4169 58.807 112.567 39.9834 112.567 39.9834L123.719 39.9924Z" fill="#B52873"/>
<path d="M123.719 39.9924L105.84 61.0547C105.84 61.0547 104.894 62.1087 102.579 62.1087H95.7948C95.6495 62.1037 95.5073 62.064 95.3799 61.9927C95.2525 61.9215 95.1435 61.8208 95.0618 61.6988C94.8485 61.3925 94.8352 60.9421 95.3772 60.2124C96.4169 58.807 112.567 39.9834 112.567 39.9834L123.719 39.9924Z" fill="url(#paint1_linear_27_1398)"/>
<path d="M125.029 39.1864L120.782 33.8713C120.782 33.8713 122.906 31.2047 123.301 30.6867C123.605 30.3334 123.979 30.0487 124.398 29.8508C124.818 29.653 125.273 29.5464 125.736 29.5381H130.801C130.989 29.5443 131.171 29.6032 131.328 29.7081C131.485 29.8131 131.61 29.96 131.689 30.1327C131.762 30.2923 131.786 30.4699 131.76 30.6436C131.734 30.8173 131.658 30.9794 131.543 31.1101C130.516 32.3488 125.043 39.1864 125.043 39.1864" fill="#181716"/>
<path d="M125.029 41.3662L120.782 46.5732L122.364 48.7984C122.364 48.7984 123.492 50.2172 125.171 50.2172H129.979C130.16 50.2206 130.338 50.1715 130.493 50.0759C130.648 49.9802 130.773 49.8419 130.853 49.6771C130.933 49.5122 130.965 49.3277 130.946 49.1449C130.926 48.9622 130.856 48.7889 130.743 48.6452C129.97 47.6768 125.029 41.3662 125.029 41.3662Z" fill="#181716"/>
<defs>
<linearGradient id="paint0_linear_27_1398" x1="118.64" y1="36.3258" x2="100.294" y2="27.2931" gradientUnits="userSpaceOnUse">
<stop stop-color="#B52873"/>
<stop offset="0.99" stop-color="#B56780"/>
</linearGradient>
<linearGradient id="paint1_linear_27_1398" x1="94.924" y1="51.046" x2="123.719" y2="51.046" gradientUnits="userSpaceOnUse">
<stop stop-color="#B52873"/>
<stop offset="0.99" stop-color="#B56780"/>
</linearGradient>
</defs>
</svg>
